<?xml version="1.0" encoding="UTF-8" standalone="no"?>
<!-- Created with Inkscape (http://www.inkscape.org/) -->

<svg
   width="200"
   height="296.81601"
   viewBox="0 0 52.916665 78.532571"
   version="1.1"
   id="svg141114"
   xmlns="http://www.w3.org/2000/svg"
   xmlns:svg="http://www.w3.org/2000/svg"
   xmlns:rdf="http://www.w3.org/1999/02/22-rdf-syntax-ns#"
   xmlns:cc="http://creativecommons.org/ns#"
   xmlns:dc="http://purl.org/dc/elements/1.1/">
  <title
     id="title142370">Viqarunnisa Noon School and College Logo</title>
  <defs
     id="defs141111" />
  <g
     id="layer1">
    <g
       id="g140576"
       transform="matrix(0.50910862,0,0,0.50910862,63.498831,-2.0078637)">
      <g
         id="g125338"
         transform="translate(-56.568542,59.396969)">
        <g
           id="g108599">
          <path
             d="m -53.412562,22.669591 c 0,-32.5648742 16.66647,-58.96407 37.225517,-58.96407 20.5590301,0 37.22551,26.3991958 37.22551,58.96407 0,32.564871 -16.6664799,58.964066 -37.22551,58.964066 -20.559047,0 -37.225527,-26.399195 -37.225517,-58.964066 z"
             fill="#4472c4"
             fill-rule="evenodd"
             id="path7"
             style="fill:#dd2217;fill-opacity:1;stroke-width:0.19521" />
          <path
             d="m -44.107642,22.669591 c 0,-27.1430452 12.50051,-49.146956 27.920596,-49.146956 15.42008256,0 27.92059,22.0039108 27.92059,49.146956 0,27.143042 -12.50050744,49.146952 -27.92059,49.146952 -15.420086,0 -27.920596,-22.00391 -27.920596,-49.146952 z"
             fill="#4472c4"
             fill-rule="evenodd"
             id="path1016"
             style="fill:#ffffff;fill-opacity:1;stroke-width:0.154347" />
          <g
             style="font-size:6px;line-height:125%;font-family:Calibri;letter-spacing:0px;word-spacing:0px;fill:#f4e326;fill-opacity:1;stroke:#f4e326;stroke-width:0.197736;stroke-miterlimit:4;stroke-dasharray:none;stroke-opacity:1"
             transform="matrix(1.0207733,0,0,1.0022089,72.520444,14.815133)">
            <path
               d="m -116.61131,7.5431704 -4.32953,1.5718188 0.0132,-0.6150936 3.14327,-1.0492202 q 0.3778,-0.126714 0.70779,-0.2104953 -0.34935,-0.1071061 -0.69801,-0.2464314 l -3.09459,-1.2266263 0.0124,-0.5799454 4.25797,1.773119 z"
               id="path19008"
               style="fill:#f4e326;fill-opacity:1;stroke:#f4e326;stroke-width:0.197736;stroke-miterlimit:4;stroke-dasharray:none;stroke-opacity:1" />
            <path
               d="m -116.51508,4.6737794 -4.28912,-0.2232067 0.0295,-0.5675913 4.28912,0.2232067 z"
               id="path19010"
               style="fill:#f4e326;fill-opacity:1;stroke:#f4e326;stroke-width:0.197736;stroke-miterlimit:4;stroke-dasharray:none;stroke-opacity:1" />
            <path
               d="m -116.61947,-0.17707711 q 0.30577,-0.37035748 0.46027,-0.69214252 l 0.37952,0.20070191 q -0.20656,0.44664325 -0.60548,0.87357925 0.22413,0.49888358 0.17402,1.07385237 -0.0506,0.5808061 -0.37202,1.0292033 -0.3214,0.4483972 -0.85162,0.6609752 -0.52997,0.2096593 -1.16623,0.154206 -0.63334,-0.055199 -1.13047,-0.3573163 -0.49713,-0.3021173 -0.72736,-0.798591 -0.22997,-0.4993923 -0.17884,-1.08603561 0.0516,-0.59248058 0.37621,-1.04354202 0.32165,-0.45131582 0.85111,-0.6551379 0.5268,-0.20699507 1.16306,-0.15154174 0.52827,0.0460415 0.93748,0.24344991 0.40629,0.19715402 0.69035,0.54833915 z m -0.83244,1.18316771 q 0.17991,-0.47837321 0.47907,-0.77284648 -0.41181,-0.53876682 -1.32534,-0.61838559 -0.51951,-0.0452784 -0.9232,0.098926 -0.40344,0.14128579 -0.64626,0.46419551 -0.24549,0.31973672 -0.28237,0.74293713 -0.0552,0.63334133 0.3433,1.08860603 0.39558,0.4550104 1.25657,0.5300505 0.83473,0.072751 1.31714,-0.2998562 0.48267,-0.3755254 0.53864,-1.0176226 0.0264,-0.30353685 -0.064,-0.58197076 -0.19535,0.25058672 -0.29401,0.53900836 z"
               id="path19012"
               style="fill:#f4e326;fill-opacity:1;stroke:#f4e326;stroke-width:0.197736;stroke-miterlimit:4;stroke-dasharray:none;stroke-opacity:1" />
            <path
               d="m -116.0727,-1.0752034 -4.03142,-2.2168748 0.0831,-0.606643 4.4937,-1.1588466 -0.0878,0.6414741 -1.35672,0.3198612 -0.24366,1.7792926 1.22476,0.6438013 z m -1.57922,-1.4670845 0.19755,-1.4425912 -1.23927,0.2827188 q -0.56481,0.1296472 -0.92373,0.1810349 0.39814,0.1373181 0.78132,0.3406009 z"
               id="path19014"
               style="fill:#f4e326;fill-opacity:1;stroke:#f4e326;stroke-width:0.197736;stroke-miterlimit:4;stroke-dasharray:none;stroke-opacity:1" />
            <path
               d="m -115.44664,-5.5141079 -4.22126,-0.7920601 0.35119,-1.8716343 q 0.10589,-0.5643697 0.27618,-0.8364608 0.16741,-0.2726315 0.48831,-0.3942485 0.3209,-0.121617 0.66931,-0.056242 0.44919,0.084285 0.70272,0.4329185 0.25354,0.3486338 0.22304,0.9718634 0.14814,-0.201726 0.27341,-0.2974532 0.27052,-0.2026098 0.64848,-0.3582336 l 1.28667,-0.5186821 -0.13183,0.7025827 -0.98305,0.3938234 q -0.42601,0.1734344 -0.65728,0.2939833 -0.23128,0.120549 -0.33568,0.2321163 -0.10385,0.1086877 -0.15984,0.2323193 -0.038,0.091239 -0.0785,0.3071972 l -0.12156,0.6478734 1.87451,0.3517265 z m -2.25345,-1.0011055 0.2253,-1.2007254 q 0.0719,-0.3829652 0.0346,-0.6135107 -0.0401,-0.2310858 -0.1918,-0.3758011 -0.15458,-0.1452555 -0.35902,-0.1836159 -0.29946,-0.05619 -0.53344,0.1264483 -0.23345,0.1797586 -0.32151,0.6491069 l -0.25069,1.3360589 z"
               id="path19016"
               style="fill:#f4e326;fill-opacity:1;stroke:#f4e326;stroke-width:0.197736;stroke-miterlimit:4;stroke-dasharray:none;stroke-opacity:1" />
            <path
               d="m -118.12922,-13.517692 0.13494,-0.552109 2.41049,0.589128 q 0.62895,0.153715 0.96415,0.386433 0.33519,0.232717 0.47744,0.662568 0.1401,0.426309 -0.007,1.029645 -0.14328,0.58626 -0.43646,0.909693 -0.29318,0.323432 -0.71348,0.3896 -0.42315,0.06547 -1.08625,-0.09659 l -2.4105,-0.589127 0.13494,-0.55211 2.40765,0.588432 q 0.54357,0.13285 0.82689,0.09654 0.28118,-0.03985 0.48044,-0.250522 0.19997,-0.213513 0.28691,-0.569254 0.14885,-0.609028 -0.0639,-0.935475 -0.21276,-0.326447 -0.99824,-0.518418 z"
               id="path19018"
               style="fill:#f4e326;fill-opacity:1;stroke:#f4e326;stroke-width:0.197736;stroke-miterlimit:4;stroke-dasharray:none;stroke-opacity:1" />
            <path
               d="m -113.57541,-13.958059 -4.10581,-1.260454 0.1711,-0.557336 3.88563,-1.166907 -3.22359,-0.989619 0.15992,-0.520928 4.10581,1.260455 -0.1711,0.557336 -3.88843,1.166046 3.22639,0.99048 z"
               id="path19020"
               style="fill:#f4e326;fill-opacity:1;stroke:#f4e326;stroke-width:0.197736;stroke-miterlimit:4;stroke-dasharray:none;stroke-opacity:1" />
            <path
               d="m -112.27875,-18.094079 -4.01761,-1.518274 0.20609,-0.545365 3.9518,-0.918163 -3.15434,-1.192042 0.19263,-0.509738 4.01761,1.518274 -0.20609,0.545365 -3.95455,0.917128 3.15709,1.193077 z"
               id="path19022"
               style="fill:#f4e326;fill-opacity:1;stroke:#f4e326;stroke-width:0.197736;stroke-miterlimit:4;stroke-dasharray:none;stroke-opacity:1" />
            <path
               d="m -110.65766,-22.222557 -3.94072,-1.707963 0.22602,-0.521486 3.94072,1.707963 z"
               id="path19024"
               style="fill:#f4e326;fill-opacity:1;stroke:#f4e326;stroke-width:0.197736;stroke-miterlimit:4;stroke-dasharray:none;stroke-opacity:1" />
            <path
               d="m -111.36337,-24.103099 0.19521,-0.501527 q 0.30585,0.108452 0.55332,0.07702 0.24613,-0.03536 0.49137,-0.241039 0.24262,-0.206978 0.40467,-0.535382 0.1439,-0.291623 0.1674,-0.55772 0.0235,-0.266097 -0.0731,-0.44771 -0.0979,-0.185536 -0.27658,-0.273692 -0.18128,-0.08945 -0.36712,-0.05048 -0.18848,0.03768 -0.3997,0.234006 -0.13691,0.12519 -0.5249,0.593663 -0.39061,0.467177 -0.60859,0.624237 -0.28062,0.204557 -0.56084,0.236163 -0.28155,0.02768 -0.5469,-0.103256 -0.29163,-0.143902 -0.46217,-0.433874 -0.17316,-0.291269 -0.14766,-0.673985 0.0255,-0.382716 0.21738,-0.771547 0.21131,-0.42824 0.51131,-0.685307 0.29867,-0.26099 0.65351,-0.30478 0.35484,-0.04379 0.70023,0.110311 l -0.20435,0.506816 q -0.38463,-0.140794 -0.68396,-0.0043 -0.29802,0.133897 -0.51712,0.577899 -0.22817,0.462394 -0.16241,0.759467 0.0644,0.29315 0.30351,0.411124 0.20755,0.102417 0.41544,0.01878 0.20659,-0.08101 0.65441,-0.631029 0.4465,-0.553944 0.66567,-0.733284 0.32095,-0.259798 0.63911,-0.302085 0.31553,-0.04358 0.62555,0.109394 0.30738,0.151681 0.49376,0.462533 0.18374,0.309556 0.17277,0.71578 -0.0123,0.402301 -0.21584,0.814777 -0.25798,0.522819 -0.58538,0.802304 -0.3261,0.276857 -0.73068,0.32877 -0.40592,0.04799 -0.79731,-0.132076 z"
               id="path19026"
               style="fill:#f4e326;fill-opacity:1;stroke:#f4e326;stroke-width:0.197736;stroke-miterlimit:4;stroke-dasharray:none;stroke-opacity:1" />
            <path
               d="m -108.4765,-26.833124 -2.86309,-3.601336 0.31082,-0.527546 4.59272,0.665762 -0.32867,0.557835 -1.37504,-0.228692 -0.91165,1.547298 0.88127,1.066706 z m -0.89044,-1.96301 0.73914,-1.254498 -1.25235,-0.217612 q -0.57107,-0.09844 -0.922,-0.1896 0.31426,0.280372 0.58927,0.615825 z"
               id="path19028"
               style="fill:#f4e326;fill-opacity:1;stroke:#f4e326;stroke-width:0.197736;stroke-miterlimit:4;stroke-dasharray:none;stroke-opacity:1" />
            <path
               d="m -105.41868,-31.766999 -3.3823,-2.646965 0.35931,-0.459125 4.04583,0.301698 -2.65554,-2.078211 0.33584,-0.429131 3.38229,2.646965 -0.3593,0.459125 -4.04814,-0.303504 2.65785,2.080017 z"
               id="path19030"
               style="fill:#f4e326;fill-opacity:1;stroke:#f4e326;stroke-width:0.197736;stroke-miterlimit:4;stroke-dasharray:none;stroke-opacity:1" />
            <path
               d="m -104.30345,-36.5385 q -0.74878,-0.763412 -0.76145,-1.596358 -0.0147,-0.835037 0.63367,-1.470992 0.42458,-0.416449 0.9645,-0.547959 0.53991,-0.13151 1.07465,0.05804 0.53477,0.18541 0.9861,0.645549 0.45747,0.466414 0.63029,1.019157 0.17282,0.552743 0.0144,1.081566 -0.16047,0.526731 -0.55995,0.918562 -0.43295,0.424654 -0.97902,0.54989 -0.54607,0.125235 -1.07666,-0.06428 -0.53059,-0.189513 -0.92653,-0.59318 z m 0.42446,-0.404019 q 0.54364,0.554258 1.15452,0.582955 0.61091,0.02455 1.06059,-0.416512 0.45805,-0.449272 0.43703,-1.060627 -0.0189,-0.613406 -0.59949,-1.205311 -0.36722,-0.374386 -0.76765,-0.527421 -0.40038,-0.157179 -0.79485,-0.06984 -0.39443,0.0832 -0.6977,0.38066 -0.43086,0.422602 -0.45119,1.02527 -0.0203,0.598525 0.65874,1.290826 z"
               id="path19032"
               style="fill:#f4e326;fill-opacity:1;stroke:#f4e326;stroke-width:0.197736;stroke-miterlimit:4;stroke-dasharray:none;stroke-opacity:1" />
            <path
               d="m -100.6715,-40.021069 q -0.6082,-0.879535 -0.47915,-1.702521 0.12738,-0.825395 0.87438,-1.341943 0.489163,-0.338255 1.043571,-0.37612 0.554407,-0.03786 1.049164,0.239787 0.495499,0.273575 0.862081,0.803705 0.371581,0.53736 0.447975,1.111429 0.07639,0.57407 -0.169572,1.068288 -0.247633,0.491808 -0.707882,0.810067 -0.498805,0.344921 -1.058211,0.375556 -0.559407,0.03064 -1.050087,-0.246272 -0.490679,-0.276907 -0.812269,-0.741976 z m 0.48693,-0.326028 q 0.441567,0.638567 1.038683,0.770636 0.597859,0.127994 1.115941,-0.230257 0.527721,-0.364916 0.610879,-0.970953 0.08557,-0.607703 -0.38599,-1.289643 -0.298264,-0.431333 -0.666871,-0.650178 -0.367862,-0.222921 -0.771434,-0.203873 -0.402828,0.01497 -0.752232,0.256583 -0.496396,0.343254 -0.618826,0.933705 -0.12169,0.586375 0.42985,1.38398 z"
               id="path19034"
               style="fill:#f4e326;fill-opacity:1;stroke:#f4e326;stroke-width:0.197736;stroke-miterlimit:4;stroke-dasharray:none;stroke-opacity:1" />
            <path
               d="m -95.44986,-40.981268 -1.668151,-3.95773 0.537236,-0.226441 3.388468,2.231154 -1.309715,-3.107331 0.502141,-0.211648 1.668151,3.95773 -0.537236,0.22644 -3.389606,-2.233853 1.310853,3.110031 z"
               id="path19036"
               style="fill:#f4e326;fill-opacity:1;stroke:#f4e326;stroke-width:0.197736;stroke-miterlimit:4;stroke-dasharray:none;stroke-opacity:1" />
            <path
               d="m -90.069508,-44.283608 0.530877,-0.08835 q 0.06299,0.318337 0.216412,0.515029 0.156119,0.193544 0.458209,0.299321 0.301864,0.102856 0.66697,0.07443 0.324214,-0.02524 0.564982,-0.14096 0.240767,-0.115717 0.34756,-0.291529 0.109486,-0.178961 0.09402,-0.377578 -0.01569,-0.201539 -0.144122,-0.341406 -0.128659,-0.142788 -0.405337,-0.224096 -0.17756,-0.05376 -0.778487,-0.148027 -0.601154,-0.09718 -0.847522,-0.204362 -0.319196,-0.136769 -0.4895,-0.361533 -0.167611,-0.227911 -0.190579,-0.522917 -0.02524,-0.324214 0.136941,-0.618942 0.161955,-0.297649 0.504007,-0.471208 0.342052,-0.173558 0.774338,-0.207215 0.476098,-0.03707 0.850336,0.08954 0.376931,0.123458 0.595823,0.406148 0.218893,0.282691 0.262832,0.658343 l -0.540094,0.08319 q -0.07542,-0.402586 -0.345682,-0.590182 -0.267339,-0.187823 -0.760962,-0.149392 -0.514069,0.04002 -0.735876,0.248299 -0.219114,0.205127 -0.19842,0.470924 0.01797,0.230747 0.196051,0.366748 0.175165,0.136228 0.876765,0.240286 0.704294,0.10091 0.970425,0.197732 0.387285,0.143222 0.586151,0.395147 0.198639,0.249005 0.225472,0.593665 0.02661,0.341739 -0.145439,0.660744 -0.172274,0.316083 -0.527112,0.514146 -0.352144,0.194914 -0.810717,0.230617 -0.581249,0.04525 -0.988753,-0.09345 -0.404583,-0.138937 -0.655868,-0.460245 -0.248591,-0.324457 -0.293703,-0.752912 z"
               id="path19038"
               style="fill:#f4e326;fill-opacity:1;stroke:#f4e326;stroke-width:0.197736;stroke-miterlimit:4;stroke-dasharray:none;stroke-opacity:1" />
            <path
               d="m -82.495118,-44.127527 0.537479,0.234002 q -0.290115,0.66185 -0.809727,0.950391 -0.516247,0.286126 -1.178228,0.177108 -0.685108,-0.112827 -1.070128,-0.461272 -0.381653,-0.350859 -0.520012,-0.916999 -0.135469,-0.565664 -0.0355,-1.172722 0.109018,-0.661981 0.441443,-1.111992 0.335793,-0.452425 0.843097,-0.630165 0.510671,-0.180155 1.071476,-0.0878 0.635965,0.104734 1.016259,0.499907 0.380293,0.395173 0.454207,1.010083 l -0.573556,0.03916 q -0.07126,-0.486799 -0.316908,-0.744002 -0.245651,-0.257203 -0.670591,-0.327184 -0.488537,-0.08045 -0.856643,0.09943 -0.365216,0.180356 -0.563411,0.55449 -0.197718,0.371243 -0.266747,0.790402 -0.08902,0.54057 4.28e-4,0.970982 0.09282,0.427998 0.392407,0.682206 0.299588,0.254209 0.686949,0.318001 0.471192,0.0776 0.842597,-0.140337 0.371404,-0.217936 0.575105,-0.733682 z"
               id="path19040"
               style="fill:#f4e326;fill-opacity:1;stroke:#f4e326;stroke-width:0.197736;stroke-miterlimit:4;stroke-dasharray:none;stroke-opacity:1" />
            <path
               d="m -81.487295,-42.304255 1.665475,-3.958857 0.523887,0.220397 -0.683913,1.62567 2.057742,0.865683 0.683912,-1.625669 0.523887,0.220397 -1.665474,3.958856 -0.523887,-0.220397 0.785022,-1.866009 -2.057741,-0.865684 -0.785023,1.86601 z"
               id="path19042"
               style="fill:#f4e326;fill-opacity:1;stroke:#f4e326;stroke-width:0.197736;stroke-miterlimit:4;stroke-dasharray:none;stroke-opacity:1" />
            <path
               d="m -76.498056,-42.352904 q 0.607709,-0.879868 1.423168,-1.050121 0.817123,-0.172662 1.564409,0.343474 0.489352,0.337986 0.720779,0.843202 0.231427,0.505216 0.146625,1.066182 -0.08073,0.56022 -0.447016,1.090551 -0.371285,0.537564 -0.881271,0.811984 -0.509986,0.274419 -1.059246,0.219066 -0.547595,-0.05776 -1.00802,-0.37577 -0.498994,-0.344646 -0.725426,-0.857094 -0.226432,-0.512448 -0.140885,-1.069338 0.08555,-0.55689 0.406883,-1.022136 z m 0.477125,0.340223 q -0.441213,0.638809 -0.353646,1.244055 0.09164,0.6045 0.609921,0.962465 0.527922,0.364626 1.124219,0.228152 0.598709,-0.134809 1.069891,-0.817008 0.298027,-0.431498 0.37242,-0.85367 0.07847,-0.422917 -0.08203,-0.793691 -0.156423,-0.371519 -0.50596,-0.612938 -0.496584,-0.342981 -1.092187,-0.248754 -0.591527,0.09348 -1.142628,0.891389 z"
               id="path19044"
               style="fill:#f4e326;fill-opacity:1;stroke:#f4e326;stroke-width:0.197736;stroke-miterlimit:4;stroke-dasharray:none;stroke-opacity:1" />
            <path
               d="m -72.420544,-39.409717 q 0.748455,-0.763737 1.580987,-0.792867 0.834583,-0.03122 1.483236,0.604452 0.424763,0.416264 0.566924,0.953472 0.142162,0.537207 -0.03678,1.075588 -0.174798,0.538338 -0.625922,0.998673 -0.457276,0.466612 -1.006493,0.650328 -0.549218,0.183717 -1.08107,0.03578 -0.529802,-0.150024 -0.929456,-0.541681 -0.433132,-0.424467 -0.569142,-0.967952 -0.13601,-0.543484 0.04297,-1.077722 0.178983,-0.534237 0.574742,-0.938076 z m 0.412334,0.41639 q -0.543399,0.554493 -0.560011,1.165815 -0.01247,0.61128 0.437404,1.052151 0.458242,0.449073 1.069062,0.415968 0.612911,-0.03105 1.193221,-0.623211 0.36705,-0.374545 0.512137,-0.777922 0.14923,-0.40342 0.05411,-0.796083 -0.09098,-0.392705 -0.394383,-0.690037 -0.43104,-0.422416 -1.033992,-0.430825 -0.598809,-0.0085 -1.277545,0.684144 z"
               id="path19046"
               style="fill:#f4e326;fill-opacity:1;stroke:#f4e326;stroke-width:0.197736;stroke-miterlimit:4;stroke-dasharray:none;stroke-opacity:1" />
            <path
               d="m -70.520654,-34.470071 3.339475,-2.700789 0.357403,0.441922 -2.94539,2.382074 1.330129,1.64468 -0.394085,0.318715 z"
               id="path19048"
               style="fill:#f4e326;fill-opacity:1;stroke:#f4e326;stroke-width:0.197736;stroke-miterlimit:4;stroke-dasharray:none;stroke-opacity:1" />
            <path
               d="m -68.052903,-31.316398 4.513116,-0.893706 0.326371,0.518073 -2.696996,3.776569 -0.34511,-0.547819 0.833564,-1.11722 -0.957249,-1.519514 -1.35201,0.294253 z m 2.152797,0.108467 0.776106,1.231972 0.767478,-1.013262 q 0.34927,-0.462409 0.591155,-0.732517 -0.393237,0.150776 -0.817433,0.241416 z"
               id="path19050"
               style="fill:#f4e326;fill-opacity:1;stroke:#f4e326;stroke-width:0.197736;stroke-miterlimit:4;stroke-dasharray:none;stroke-opacity:1" />
            <path
               d="m -65.70317,-27.515017 3.813312,-1.976108 0.268244,0.517632 -1.956016,3.5544 2.993944,-1.551501 0.250721,0.483818 -3.813313,1.976108 -0.268243,-0.517633 1.958616,-3.555748 -2.996545,1.552849 z"
               id="path19052"
               style="fill:#f4e326;fill-opacity:1;stroke:#f4e326;stroke-width:0.197736;stroke-miterlimit:4;stroke-dasharray:none;stroke-opacity:1" />
            <path
               d="m -63.742581,-23.64336 3.952323,-1.680922 0.579035,1.361476 q 0.19607,0.461014 0.242648,0.727732 0.06629,0.372947 -0.03656,0.700032 -0.131201,0.425102 -0.478331,0.754204 -0.343288,0.330651 -0.871702,0.555386 -0.450231,0.191482 -0.842731,0.234251 -0.3925,0.04277 -0.691602,-0.02423 -0.296407,-0.06814 -0.512212,-0.208764 -0.211963,-0.139075 -0.397463,-0.388097 -0.184354,-0.246326 -0.336852,-0.604893 z m 0.688848,0.32466 0.358887,0.843845 q 0.166258,0.390919 0.333071,0.581032 0.16796,0.192809 0.356247,0.268729 0.265139,0.106907 0.621445,0.07635 0.360149,-0.02901 0.807683,-0.219345 0.620078,-0.263719 0.864543,-0.609647 0.248308,-0.344378 0.237706,-0.683703 -0.0086,-0.244685 -0.206918,-0.711092 l -0.353154,-0.830365 z"
               id="path19054"
               style="fill:#f4e326;fill-opacity:1;stroke:#f4e326;stroke-width:0.197736;stroke-miterlimit:4;stroke-dasharray:none;stroke-opacity:1" />
            <path
               d="m -59.141951,-15.617176 0.03701,0.585039 q -0.721312,0.04382 -1.215149,-0.286902 -0.490152,-0.32883 -0.695182,-0.967632 -0.212192,-0.661118 -0.0778,-1.162708 0.138076,-0.499697 0.578724,-0.881125 0.441544,-0.378638 1.027344,-0.566656 0.638802,-0.20503 1.190915,-0.114546 0.555798,0.09238 0.945424,0.462703 0.39331,0.372219 0.567003,0.913387 0.196972,0.613696 0.01884,1.132402 -0.178128,0.518705 -0.691578,0.865039 l -0.296536,-0.49251 q 0.400663,-0.285518 0.517451,-0.621461 0.116789,-0.335943 -0.01482,-0.746004 -0.15131,-0.47143 -0.479329,-0.716914 -0.327124,-0.242696 -0.750474,-0.248354 -0.420561,-0.0066 -0.825042,0.123268 -0.521642,0.167426 -0.863828,0.443406 -0.338501,0.277874 -0.428016,0.660447 -0.08951,0.382573 0.03046,0.75637 0.145938,0.454693 0.509325,0.685749 0.363387,0.231056 0.915263,0.177002 z"
               id="path19056"
               style="fill:#f4e326;fill-opacity:1;stroke:#f4e326;stroke-width:0.197736;stroke-miterlimit:4;stroke-dasharray:none;stroke-opacity:1" />
            <path
               d="m -58.228162,-14.623501 q 1.036285,-0.263803 1.762806,0.143781 0.729361,0.406862 0.953413,1.286995 0.146718,0.576345 -0.01087,1.109231 -0.157588,0.532886 -0.590165,0.899971 -0.429014,0.369202 -1.053624,0.528206 -0.633128,0.161173 -1.197864,0.03285 -0.564735,-0.128318 -0.94235,-0.531006 -0.374776,-0.40341 -0.512821,-0.945686 -0.149609,-0.587701 0.0165,-1.122755 0.166105,-0.535055 0.596565,-0.898578 0.43046,-0.363523 0.978414,-0.503013 z m 0.136032,0.569995 q -0.752371,0.191529 -1.084129,0.705267 -0.328196,0.515854 -0.172805,1.126269 0.158282,0.621771 0.697417,0.910786 0.539857,0.291855 1.343333,0.08732 0.508206,-0.129372 0.841723,-0.398685 0.33708,-0.267197 0.459775,-0.652136 0.126258,-0.382824 0.02146,-0.794499 -0.148886,-0.584862 -0.659733,-0.905263 -0.507285,-0.318285 -1.44704,-0.07906 z"
               id="path19058"
               style="fill:#f4e326;fill-opacity:1;stroke:#f4e326;stroke-width:0.197736;stroke-miterlimit:4;stroke-dasharray:none;stroke-opacity:1" />
            <path
               d="m -59.106802,-9.4305389 4.210629,-0.8467331 0.11205,0.5572043 -3.71374,0.746812 0.417013,2.0737204 -0.496888,0.099921 z"
               id="path19060"
               style="fill:#f4e326;fill-opacity:1;stroke:#f4e326;stroke-width:0.197736;stroke-miterlimit:4;stroke-dasharray:none;stroke-opacity:1" />
            <path
               d="m -58.466789,-6.1546627 4.241263,-0.6767913 0.08956,0.5612585 -3.740759,0.5969244 0.333317,2.0888073 -0.500504,0.079867 z"
               id="path19062"
               style="fill:#f4e326;fill-opacity:1;stroke:#f4e326;stroke-width:0.197736;stroke-miterlimit:4;stroke-dasharray:none;stroke-opacity:1" />
            <path
               d="m -57.949,-2.8217648 4.266185,-0.4960092 0.358642,3.08468991 -0.503444,0.0585331 -0.293005,-2.52013341 -1.306628,0.1519155 0.274396,2.36007873 -0.500535,0.0581948 -0.274395,-2.36007873 -1.452133,0.1688326 0.304508,2.61907626 -0.503445,0.0585331 z"
               id="path19064"
               style="fill:#f4e326;fill-opacity:1;stroke:#f4e326;stroke-width:0.197736;stroke-miterlimit:4;stroke-dasharray:none;stroke-opacity:1" />
            <path
               d="m -55.687489,3.0350342 0.502765,-0.033889 0.125278,1.8150199 -1.590142,0.1071838 q -0.361403,-0.3955355 -0.560889,-0.8284122 -0.196562,-0.4330736 -0.228087,-0.9007624 -0.04256,-0.6313798 0.191489,-1.1668871 0.237167,-0.5327813 0.730969,-0.8303363 0.493802,-0.29755501 1.125182,-0.34011328 0.625533,-0.0421642 1.183834,0.18153728 0.561421,0.2264275 0.857597,0.6997681 0.296175,0.4733405 0.339325,1.1134895 0.03133,0.4647657 -0.09545,0.8491622 -0.123659,0.3871225 -0.378197,0.6186322 -0.254538,0.2315097 -0.679663,0.371746 l -0.174786,-0.5020771 q 0.32088,-0.1185281 0.498301,-0.2743676 0.177421,-0.1558396 0.270567,-0.4293246 0.09607,-0.2736821 0.0742,-0.5981412 -0.0262,-0.3887663 -0.165162,-0.6642244 -0.136034,-0.2756551 -0.340778,-0.4380345 -0.204546,-0.1594563 -0.441969,-0.2403518 -0.408569,-0.1368951 -0.873335,-0.1055675 -0.572919,0.038618 -0.945561,0.2604702 -0.372445,0.2247755 -0.534104,0.6144594 -0.161659,0.3896839 -0.133089,0.8135269 0.02482,0.3683048 0.188775,0.709614 0.166873,0.3411121 0.339857,0.5115049 l 0.797994,-0.053789 z"
               id="path19066"
               style="fill:#f4e326;fill-opacity:1;stroke:#f4e326;stroke-width:0.197736;stroke-miterlimit:4;stroke-dasharray:none;stroke-opacity:1" />
            <path
               d="m -57.219472,5.8133884 4.294042,-0.086949 0.06287,3.1048323 -0.506732,0.010261 -0.05136,-2.5365894 -1.31516,0.02663 0.0481,2.3754896 -0.503803,0.010201 -0.0481,-2.3754897 -1.461615,0.029596 0.05338,2.6361784 -0.506732,0.010261 z"
               id="path19068"
               style="fill:#f4e326;fill-opacity:1;stroke:#f4e326;stroke-width:0.197736;stroke-miterlimit:4;stroke-dasharray:none;stroke-opacity:1" />
          </g>
          <g
             style="font-size:6.66667px;line-height:125%;font-family:Arial;letter-spacing:0.98px;word-spacing:0px;fill:#f4e326;fill-opacity:1;stroke:#f4e326;stroke-width:0.2;stroke-miterlimit:4;stroke-dasharray:none;stroke-opacity:1"
             transform="translate(0.10548766)">
            <path
               d="m -49.382079,40.042575 4.661957,-1.019537 0.134919,0.616931 -4.111808,0.899222 0.502118,2.295998 -0.550149,0.120314 z"
               id="path34689"
               style="fill:#f4e326;fill-opacity:1;stroke:#f4e326;stroke-width:0.2;stroke-miterlimit:4;stroke-dasharray:none;stroke-opacity:1" />
            <path
               d="m -48.280108,44.735846 4.608374,-1.239429 0.164017,0.609839 -4.608374,1.239429 z"
               id="path34691"
               style="fill:#f4e326;fill-opacity:1;stroke:#f4e326;stroke-width:0.2;stroke-miterlimit:4;stroke-dasharray:none;stroke-opacity:1" />
            <path
               d="m -45.080324,48.889407 0.530931,-0.177753 0.644856,1.915874 -1.679223,0.562195 q -0.499679,-0.323601 -0.835798,-0.732856 -0.333031,-0.410288 -0.498383,-0.904178 -0.223224,-0.66675 -0.122157,-1.308192 0.105186,-0.639389 0.552368,-1.098054 0.447181,-0.458666 1.113931,-0.68189 0.660577,-0.221157 1.323613,-0.137619 0.667157,0.08559 1.118588,0.511166 0.451432,0.425573 0.677756,1.101584 0.164318,0.490803 0.136085,0.939653 -0.02411,0.450904 -0.232658,0.771318 -0.208544,0.320414 -0.626121,0.590663 l -0.32902,-0.490586 q 0.311619,-0.217611 0.458536,-0.435005 0.146917,-0.217394 0.170172,-0.537565 0.02634,-0.321203 -0.08837,-0.663839 -0.137449,-0.410546 -0.364252,-0.667595 -0.223716,-0.258082 -0.489453,-0.375083 -0.264702,-0.113915 -0.542664,-0.134137 -0.477678,-0.03231 -0.968481,0.132005 -0.605014,0.202555 -0.943232,0.545786 -0.337184,0.346318 -0.401426,0.810657 -0.06424,0.464338 0.08561,0.911926 0.130214,0.388937 0.402394,0.709749 0.275267,0.319778 0.509115,0.454321 l 0.842699,-0.282131 z"
               id="path34693"
               style="fill:#f4e326;fill-opacity:1;stroke:#f4e326;stroke-width:0.2;stroke-miterlimit:4;stroke-dasharray:none;stroke-opacity:1" />
            <path
               d="m -45.51428,53.202251 4.375936,-1.903809 0.251936,0.57908 -1.796939,0.781783 0.989565,2.274531 1.796939,-0.781782 0.251937,0.57908 -4.375936,1.903808 -0.251936,-0.57908 2.0626,-0.897361 -0.989565,-2.274531 -2.0626,0.897361 z"
               id="path34695"
               style="fill:#f4e326;fill-opacity:1;stroke:#f4e326;stroke-width:0.2;stroke-miterlimit:4;stroke-dasharray:none;stroke-opacity:1" />
            <path
               d="m -42.537914,59.523108 3.697042,-2.011826 -0.751517,-1.381029 0.494654,-0.269177 1.807999,3.322477 -0.494655,0.269177 -0.754629,-1.386748 -3.697043,2.011826 z"
               id="path34697"
               style="fill:#f4e326;fill-opacity:1;stroke:#f4e326;stroke-width:0.2;stroke-miterlimit:4;stroke-dasharray:none;stroke-opacity:1" />
            <path
               d="m -38.449598,65.973397 3.353701,-2.543277 -0.950041,-1.252774 0.448717,-0.340284 2.285605,3.013921 -0.448717,0.340284 -0.953974,-1.257962 -3.353701,2.543277 z"
               id="path34699"
               style="fill:#f4e326;fill-opacity:1;stroke:#f4e326;stroke-width:0.2;stroke-miterlimit:4;stroke-dasharray:none;stroke-opacity:1" />
            <path
               d="m -36.042168,68.991013 3.394489,-3.354213 0.443873,0.449203 -1.393917,1.377378 1.743458,1.764393 1.393917,-1.377378 0.443873,0.449203 -3.394489,3.354212 -0.443873,-0.449202 1.599995,-1.58101 -1.743459,-1.764394 -1.599994,1.58101 z"
               id="path34701"
               style="fill:#f4e326;fill-opacity:1;stroke:#f4e326;stroke-width:0.2;stroke-miterlimit:4;stroke-dasharray:none;stroke-opacity:1" />
            <path
               d="m -31.868803,73.001452 2.775288,-3.882147 1.72128,1.230516 q 0.519032,0.371048 0.713417,0.67007 0.196277,0.296373 0.168502,0.676665 -0.02777,0.380291 -0.25684,0.700714 -0.295324,0.413107 -0.765346,0.505253 -0.470023,0.09215 -1.083676,-0.230504 0.13386,0.24375 0.171633,0.414806 0.07743,0.367468 0.05719,0.821174 l -0.08008,1.539342 -0.646142,-0.461917 0.06366,-1.174939 q 0.0248,-0.510466 0.01167,-0.799955 -0.01313,-0.28949 -0.07664,-0.446934 -0.06086,-0.155551 -0.159204,-0.269869 -0.07414,-0.08101 -0.272746,-0.222992 l -0.595827,-0.425949 -1.23241,1.723928 z m 2.064187,-1.80155 1.104267,0.789424 q 0.3522,0.251782 0.601923,0.322266 0.251616,0.06784 0.468479,-0.01722 0.218756,-0.0877 0.353167,-0.275722 0.196882,-0.275404 0.122463,-0.596704 -0.07177,-0.319407 -0.503415,-0.627983 l -1.228729,-0.8784 z"
               id="path34703"
               style="fill:#f4e326;fill-opacity:1;stroke:#f4e326;stroke-width:0.2;stroke-miterlimit:4;stroke-dasharray:none;stroke-opacity:1" />
            <path
               d="m -26.325666,74.016326 q 0.465604,-1.093123 1.315375,-1.46004 0.851047,-0.369913 1.779452,0.02553 0.607956,0.258952 0.972382,0.757381 0.364426,0.498428 0.397029,1.127961 0.03687,0.627815 -0.243764,1.286683 -0.284465,0.667853 -0.778512,1.080141 -0.494048,0.412289 -1.104281,0.474342 -0.608958,0.05906 -1.180976,-0.184586 -0.619935,-0.264055 -0.980534,-0.771468 -0.360599,-0.507413 -0.391483,-1.132676 -0.03088,-0.625263 0.215312,-1.20327 z m 0.595144,0.26411 q -0.338041,0.793637 -0.107943,1.432989 0.23437,0.637633 0.878264,0.911893 0.655873,0.279362 1.274595,-0.002 0.621716,-0.280069 0.982719,-1.127613 0.228337,-0.53608 0.215309,-1.012209 -0.0088,-0.477848 -0.266035,-0.845721 -0.253006,-0.369592 -0.687261,-0.554558 -0.61694,-0.26278 -1.244313,-0.02758 -0.623102,0.233482 -1.045335,1.22478 z"
               id="path34705"
               style="fill:#f4e326;fill-opacity:1;stroke:#f4e326;stroke-width:0.2;stroke-miterlimit:4;stroke-dasharray:none;stroke-opacity:1" />
            <path
               d="m -17.491147,74.140294 0.624748,0.09217 -0.402416,2.727638 q -0.104999,0.711698 -0.327781,1.106588 -0.222781,0.39489 -0.683606,0.59672 -0.45713,0.199084 -1.139844,0.09836 -0.663393,-0.09787 -1.051526,-0.388756 -0.388133,-0.290884 -0.504808,-0.749017 -0.116201,-0.461354 -0.0055,-1.211696 l 0.402416,-2.727638 0.624748,0.09217 -0.401941,2.724418 q -0.09075,0.615087 -0.02127,0.924768 0.07317,0.306935 0.326843,0.505592 0.25689,0.199131 0.659434,0.25852 0.689155,0.101673 1.028293,-0.167466 0.339137,-0.269139 0.470267,-1.157956 z"
               id="path34707"
               style="fill:#f4e326;fill-opacity:1;stroke:#f4e326;stroke-width:0.2;stroke-miterlimit:4;stroke-dasharray:none;stroke-opacity:1" />
            <path
               d="m -13.529935,76.871011 -0.06934,-0.555586 2.00552,-0.253579 0.219307,1.757202 q -0.415954,0.425886 -0.883554,0.674511 -0.468004,0.245396 -0.984828,0.309898 -0.697713,0.08708 -1.306538,-0.13874 -0.605998,-0.229452 -0.967261,-0.758446 -0.361263,-0.528994 -0.448341,-1.226706 -0.08627,-0.691252 0.126632,-1.32471 0.215729,-0.63709 0.722112,-0.995531 0.506383,-0.35844 1.213786,-0.446728 0.513594,-0.0641 0.948016,0.05227 0.43725,0.112733 0.710139,0.380478 0.27289,0.267745 0.4553,0.730488 l -0.545925,0.225596 q -0.151747,-0.348473 -0.335825,-0.535449 -0.184078,-0.186976 -0.493341,-0.273036 -0.309666,-0.08929 -0.668213,-0.04454 -0.42961,0.05362 -0.726406,0.225158 -0.297199,0.16831 -0.464401,0.405689 -0.163972,0.236975 -0.238719,0.50546 -0.126061,0.461876 -0.06196,0.97547 0.07902,0.63311 0.348649,1.032479 0.272865,0.398967 0.715355,0.553692 0.44249,0.154724 0.910862,0.09627 0.406999,-0.05079 0.775266,-0.254219 0.367864,-0.206654 0.545961,-0.409307 l -0.110057,-0.881831 z"
               id="path34709"
               style="fill:#f4e326;fill-opacity:1;stroke:#f4e326;stroke-width:0.2;stroke-miterlimit:4;stroke-dasharray:none;stroke-opacity:1" />
            <path
               d="m -9.4213511,77.934312 -1.7828559,-4.426592 0.585783,-0.235931 0.7321145,1.817741 2.3008619,-0.926696 -0.7321143,-1.817741 0.5857837,-0.235931 1.7828564,4.426593 -0.5857837,0.23593 -0.8403505,-2.086477 -2.3008618,0.926697 0.8403505,2.086477 z"
               id="path34711"
               style="fill:#f4e326;fill-opacity:1;stroke:#f4e326;stroke-width:0.2;stroke-miterlimit:4;stroke-dasharray:none;stroke-opacity:1" />
            <path
               d="m -1.831197,73.9827 -2.9706171,-3.7348 0.4942368,-0.39311 2.62006,3.294063 1.83937635,-1.463019 0.35055714,0.440737 z"
               id="path34713"
               style="fill:#f4e326;fill-opacity:1;stroke:#f4e326;stroke-width:0.2;stroke-miterlimit:4;stroke-dasharray:none;stroke-opacity:1" />
            <path
               d="m 1.7845373,70.936602 -3.4691646,-3.276918 2.36939537,-2.5084 0.40938983,0.386703 -1.93575133,2.049315 1.06252041,1.003641 1.81281102,-1.919163 0.4070234,0.384468 -1.81281101,1.919162 1.18084121,1.115405 2.0117507,-2.129774 0.4093899,0.386703 z"
               id="path34715"
               style="fill:#f4e326;fill-opacity:1;stroke:#f4e326;stroke-width:0.2;stroke-miterlimit:4;stroke-dasharray:none;stroke-opacity:1" />
            <path
               d="M 5.088974,67.32882 2.3137653,63.035774 2.7147235,62.486144 7.7211014,63.72072 7.2971217,64.301908 5.8014293,63.89981 4.6254132,65.511883 5.4841768,66.787079 Z M 4.3173369,65.061497 5.2708117,63.754481 3.9095843,63.377948 Q 3.2887772,63.207119 2.9106021,63.068236 3.2276885,63.412374 3.4953906,63.81316 Z"
               id="path34717"
               style="fill:#f4e326;fill-opacity:1;stroke:#f4e326;stroke-width:0.2;stroke-miterlimit:4;stroke-dasharray:none;stroke-opacity:1" />
            <path
               d="M 8.5104323,62.447546 4.3699606,60.074828 5.4219844,58.239012 q 0.3172257,-0.55357 0.5952858,-0.776912 0.2752358,-0.22496 0.6563974,-0.235395 0.3811617,-0.01043 0.7229059,0.185404 0.4405959,0.252486 0.5793312,0.710923 0.1387353,0.458437 -0.1208622,1.101307 0.2291247,-0.157589 0.3955406,-0.212296 0.3578703,-0.113826 0.8113231,-0.139111 l 1.5396258,-0.07442 -0.394914,0.689137 -1.1754097,0.05428 q -0.5103843,0.02643 -0.797105,0.06847 -0.2867206,0.04204 -0.4370159,0.120996 -0.1486767,0.07613 -0.2525768,0.18542 -0.073181,0.08187 -0.1945681,0.293698 l -0.3641621,0.635475 1.8386405,1.053643 z M 6.5112925,60.574076 7.1862062,59.396329 Q 7.4014665,59.020693 7.4465969,58.765168 7.4889029,58.508025 7.3825644,58.300766 7.2734015,58.091889 7.0728739,57.976976 6.7791433,57.808652 6.4669072,57.914862 6.1562895,58.018247 5.8924743,58.478614 l -0.7509832,1.31049 z"
               id="path34719"
               style="fill:#f4e326;fill-opacity:1;stroke:#f4e326;stroke-width:0.2;stroke-miterlimit:4;stroke-dasharray:none;stroke-opacity:1" />
            <path
               d="M 11.29093,57.381791 6.9390163,55.423694 7.2048152,54.83295 11.6501,54.084516 8.2332835,52.547156 8.4817187,51.995003 12.833633,53.9531 l -0.265799,0.590744 -4.4482536,0.747099 3.4197846,1.538695 z"
               id="path34721"
               style="fill:#f4e326;fill-opacity:1;stroke:#f4e326;stroke-width:0.2;stroke-miterlimit:4;stroke-dasharray:none;stroke-opacity:1" />
            <path
               d="M 13.601654,51.945329 9.1314733,50.274766 9.3525437,49.683214 13.822725,51.353777 Z"
               id="path34723"
               style="fill:#f4e326;fill-opacity:1;stroke:#f4e326;stroke-width:0.2;stroke-miterlimit:4;stroke-dasharray:none;stroke-opacity:1" />
            <path
               d="m 14.537187,49.39209 -4.5620641,-1.400311 0.1900831,-0.619271 4.317309,-1.296747 -3.581811,-1.099426 0.177665,-0.578815 4.562064,1.400311 -0.190083,0.61927 -4.320421,1.295792 3.584923,1.100381 z"
               id="path34725"
               style="fill:#f4e326;fill-opacity:1;stroke:#f4e326;stroke-width:0.2;stroke-miterlimit:4;stroke-dasharray:none;stroke-opacity:1" />
            <path
               d="m 14.830754,41.235976 -0.546315,-0.122572 0.439363,-1.973163 1.727879,0.387667 q 0.260188,0.535443 0.336091,1.059565 0.07273,0.523409 -0.04129,1.031609 -0.153926,0.68607 -0.572276,1.182705 -0.420813,0.492746 -1.040792,0.653899 -0.61998,0.161153 -1.30605,0.0072 -0.679717,-0.152502 -1.2039,-0.567023 -0.526646,-0.418411 -0.692788,-1.016157 -0.166142,-0.597745 -0.01008,-1.293344 0.113307,-0.505024 0.369688,-0.874527 0.253917,-0.373393 0.598153,-0.539697 0.344237,-0.166305 0.841401,-0.181534 l 0.02775,0.590049 q -0.379256,0.025 -0.617455,0.135031 -0.238198,0.110028 -0.423744,0.371987 -0.188723,0.261246 -0.267824,0.61381 -0.09478,0.422441 -0.03368,0.759755 0.05793,0.336601 0.2248,0.574209 0.167588,0.234432 0.394995,0.395546 0.392063,0.274786 0.897087,0.388093 0.622545,0.139675 1.089555,0.02093 0.467724,-0.121918 0.762932,-0.486047 0.295208,-0.364128 0.398539,-0.824684 0.08979,-0.400208 0.02285,-0.815563 -0.07012,-0.416069 -0.200632,-0.652191 l -0.867116,-0.194546 z"
               id="path34727"
               style="fill:#f4e326;fill-opacity:1;stroke:#f4e326;stroke-width:0.2;stroke-miterlimit:4;stroke-dasharray:none;stroke-opacity:1" />
          </g>
          <g
             id="g92553">
            <path
               style="fill:#be1b13;fill-opacity:1;stroke:none;stroke-width:1px;stroke-linecap:butt;stroke-linejoin:miter;stroke-opacity:1"
               d="m -64.684609,-15.162096 c 2.347586,0.101465 4.615557,-0.354366 6.881624,-0.823534 1.216291,3.408364 2.95925,5.552724 4.564667,8.0271845 2.001991,-8.3399085 5.797786,-13.2203395 10.116448,-17.0923835 l -6.75,-2.9375 -2.5625,-3.84375 c -4.141432,3.584024 -8.272434,7.522649 -12.250239,16.669983 z"
               id="path8265" />
            <path
               style="fill:#dd2217;fill-opacity:1;stroke:none;stroke-width:1px;stroke-linecap:butt;stroke-linejoin:miter;stroke-opacity:1"
               d="m -50.839944,-25.29975 0.64307,1.757499 c 1.902471,0.09988 5.902154,-0.579042 7.075004,-1.508578 l -6.328125,-2.765625 z"
               id="path13942" />
            <path
               style="fill:#ffffff;fill-opacity:1;stroke:none;stroke-width:1px;stroke-linecap:butt;stroke-linejoin:miter;stroke-opacity:1"
               d="m -49.985036,-24.048148 c 0.614404,-1.05259 1.190879,-1.8044 1.816291,-2.518306 l 3.96875,1.609375 c -1.86825,0.488707 -3.801855,0.937438 -5.785041,0.908931 z"
               id="path12308" />
            <path
               style="fill:#be1b13;fill-opacity:1;stroke:none;stroke-width:1px;stroke-linecap:butt;stroke-linejoin:miter;stroke-opacity:1"
               d="m 32.31051,-15.162096 c -2.34759,0.101465 -4.61556,-0.354366 -6.88163,-0.823534 -1.21629,3.408364 -2.95925,5.552724 -4.56466,8.0271845 C 18.86223,-16.298354 15.06643,-21.178785 10.74777,-25.050829 l 6.75,-2.9375 2.5625,-3.84375 c 4.14143,3.584024 8.27243,7.522649 12.25024,16.669983 z"
               id="path16219" />
            <path
               style="fill:#dd2217;fill-opacity:1;stroke:none;stroke-width:1px;stroke-linecap:butt;stroke-linejoin:miter;stroke-opacity:1"
               d="m 18.46584,-25.29975 -0.64307,1.757499 c -1.90247,0.09988 -5.90215,-0.579042 -7.075,-1.508578 l 6.32812,-2.765625 z"
               id="path16221" />
            <path
               style="fill:#ffffff;fill-opacity:1;stroke:none;stroke-width:1px;stroke-linecap:butt;stroke-linejoin:miter;stroke-opacity:1"
               d="m 17.61094,-24.048148 c -0.61441,-1.05259 -1.19088,-1.8044 -1.8163,-2.518306 l -3.96875,1.609375 c 1.86825,0.488707 3.80186,0.937438 5.78505,0.908931 z"
               id="path16223" />
            <path
               id="path5385"
               style="fill:#dd2217;fill-opacity:1;stroke:none;stroke-width:1px;stroke-linecap:butt;stroke-linejoin:miter;stroke-opacity:1"
               d="m -16.18632,-55.453173 c -21.320088,0 -35.682899,8.194478 -45.087894,23.046875 l 7.759766,0.748047 3.068359,7.371094 c 6.216666,-9.59735 17.572882,-18.515625 34.259769,-18.515625 16.68689,0 28.04115,8.918275 34.25781,18.515625 l 3.06836,-7.371094 7.76172,-0.748047 C 19.49658,-47.258695 5.13377,-55.453173 -16.18632,-55.453173 Z" />
            <g
               transform="translate(0,-2.7000478)"
               id="text36520"
               style="font-size:11.417px;line-height:1.25;font-family:'Siyam Rupali';-inkscape-font-specification:'Siyam Rupali';letter-spacing:0.05px;word-spacing:0.13px;fill:#f4e326;fill-opacity:1;stroke:#f4e326;stroke-width:0.285425;stroke-opacity:1">
              <path
                 d="m -43.45149,-32.529128 -6.364941,-3.289933 0.716912,-0.633992 4.515926,2.485527 q 0.543471,0.298101 0.98743,0.586865 -0.24621,-0.512311 -0.454866,-1.05783 l -1.863351,-4.831295 0.675945,-0.597764 2.466305,6.73764 z"
                 style="font-size:9.33333px;fill:#f4e326;fill-opacity:1;stroke:#f4e326;stroke-opacity:1"
                 id="path88464" />
              <path
                 d="m -39.941954,-35.367723 -3.843357,-5.464815 0.723175,-0.508602 3.843356,5.464815 z"
                 style="font-size:9.33333px;fill:#f4e326;fill-opacity:1;stroke:#f4e326;stroke-opacity:1"
                 id="path88466" />
              <path
                 d="m -33.781918,-39.847796 q 0.741921,0.08773 1.29286,0.01859 l 0.05737,0.665356 q -0.75806,0.106291 -1.652458,-0.05556 -0.463447,0.713451 -1.257472,1.13243 -0.802086,0.423233 -1.659214,0.380838 -0.857128,-0.04239 -1.581882,-0.556558 -0.720724,-0.51629 -1.184366,-1.394958 -0.461515,-0.874637 -0.485394,-1.77924 -0.02388,-0.904602 0.431284,-1.623988 0.459193,-0.721513 1.269341,-1.148999 0.818209,-0.43174 1.681494,-0.387442 0.861158,0.04027 1.573821,0.560812 0.714566,0.514387 1.178208,1.393055 0.384951,0.729536 0.471654,1.430944 0.08458,0.697379 -0.13525,1.364726 z m -2.248507,-0.09144 q 0.777098,-0.167865 1.414225,-0.02484 0.357449,-0.992454 -0.308239,-2.254028 -0.37857,-0.717444 -0.9073,-1.123777 -0.524699,-0.40846 -1.151534,-0.453857 -0.624931,-0.05156 -1.209366,0.256831 -0.874637,0.461515 -1.134118,1.366204 -0.261608,0.900659 0.365798,2.089682 0.608264,1.152748 1.501977,1.469549 0.897744,0.314674 1.784472,-0.153222 0.419181,-0.221187 0.70705,-0.574045 -0.492264,-0.04427 -0.952523,0.06978 z"
                 style="font-size:9.33333px;fill:#f4e326;fill-opacity:1;stroke:#f4e326;stroke-opacity:1"
                 id="path88468" />
              <path
                 d="m -32.075035,-39.882774 0.397464,-7.145678 0.906751,-0.291562 4.648236,5.52325 -0.958813,0.308303 -1.361283,-1.687752 -2.659514,0.855157 -0.07911,2.150905 z m 0.995383,-3.20189 2.156245,-0.693333 -1.230179,-1.547999 q -0.561778,-0.704974 -0.875297,-1.173827 0.07522,0.650793 0.04787,1.324994 z"
                 style="font-size:9.33333px;fill:#f4e326;fill-opacity:1;stroke:#f4e326;stroke-opacity:1"
                 id="path88470" />
              <path
                 d="m -25.350818,-41.928588 -0.996858,-6.606199 2.929079,-0.441991 q 0.88323,-0.133277 1.370069,-0.02238 0.48616,0.106386 0.829041,0.515535 0.342881,0.409148 0.42516,0.954407 0.106077,0.702979 -0.276298,1.253829 -0.382376,0.55085 -1.31348,0.825009 0.372142,0.114373 0.576873,0.2494 0.436072,0.29369 0.858107,0.769246 l 1.420414,1.624607 -1.099531,0.165917 -1.081613,-1.242497 q -0.472791,-0.53703 -0.768235,-0.81507 -0.295444,-0.27804 -0.51276,-0.374296 -0.212809,-0.09694 -0.423071,-0.115906 -0.153467,-0.0091 -0.491438,0.04189 l -1.013912,0.152997 0.44267,2.933585 z m 0.31731,-3.822557 1.879117,-0.283553 q 0.599334,-0.09044 0.918945,-0.263106 0.318931,-0.177175 0.453877,-0.474071 0.134265,-0.301402 0.08599,-0.621348 -0.07072,-0.468652 -0.458755,-0.718894 -0.383529,-0.250921 -1.118052,-0.140084 l -2.090912,0.315513 z"
                 style="font-size:9.33333px;fill:#f4e326;fill-opacity:1;stroke:#f4e326;stroke-opacity:1"
                 id="path88472" />
              <path
                 d="m -14.211114,-49.475208 0.884105,0.0041 -0.01785,3.859983 q -0.0047,1.007151 -0.235258,1.598538 -0.230602,0.591388 -0.829329,0.962321 -0.594148,0.366397 -1.560283,0.36193 -0.938792,-0.0043 -1.534294,-0.330666 -0.595503,-0.326324 -0.847884,-0.938175 -0.252361,-0.616407 -0.247451,-1.678245 l 0.01785,-3.859983 0.884104,0.0041 -0.01783,3.855426 q -0.004,0.870433 0.153561,1.28588 0.162164,0.41091 0.553054,0.636027 0.395448,0.225138 0.965103,0.227773 0.975249,0.0045 1.392002,-0.435626 0.416753,-0.440134 0.422569,-1.697933 z"
                 style="font-size:9.33333px;fill:#f4e326;fill-opacity:1;stroke:#f4e326;stroke-opacity:1"
                 id="path88474" />
              <path
                 d="m -11.839812,-42.680667 1.062983,-6.595882 0.8953479,0.144293 2.6298339,5.736942 0.8345789,-5.178623 0.8368582,0.134867 -1.0629824,6.595882 -0.8953482,-0.144293 -2.6291093,-5.741441 -0.835304,5.183122 z"
                 style="font-size:9.33333px;fill:#f4e326;fill-opacity:1;stroke:#f4e326;stroke-opacity:1"
                 id="path88476" />
              <path
                 d="m -5.1486447,-41.484785 2.154725,-6.323982 0.8584396,0.29249 1.62986213,6.096891 1.69173837,-4.965146 0.8023607,0.273383 -2.15472505,6.323982 -0.85843965,-0.29249 -1.6283923,-6.101204 -1.6932082,4.969459 z"
                 style="font-size:9.33333px;fill:#f4e326;fill-opacity:1;stroke:#f4e326;stroke-opacity:1"
                 id="path88478" />
              <path
                 d="m 1.3468874,-39.02564 2.9033528,-6.017153 0.7962672,0.384209 -2.9033527,6.017153 z"
                 style="font-size:9.33333px;fill:#f4e326;fill-opacity:1;stroke:#f4e326;stroke-opacity:1"
                 id="path88480" />
              <path
                 d="m 4.4982948,-39.930319 0.743755,0.384285 q -0.2179642,0.455308 -0.209959,0.843264 0.014293,0.386542 0.2922007,0.799658 0.2803443,0.409265 0.7617438,0.713844 0.4274827,0.270467 0.8352433,0.350491 0.4077605,0.08002 0.7045477,-0.03959 0.303075,-0.121031 0.4687661,-0.382913 0.1681277,-0.265732 0.1383482,-0.559608 -0.027343,-0.297728 -0.2963707,-0.65669 -0.171178,-0.232339 -0.8321611,-0.909396 -0.6585464,-0.680909 -0.865718,-1.043878 -0.2703607,-0.467662 -0.2732555,-0.906314 0.00339,-0.440066 0.249493,-0.829037 0.2704663,-0.427483 0.7470085,-0.64369 0.4789788,-0.220058 1.0668052,-0.117785 0.5878264,0.102273 1.1578034,0.462895 0.6277449,0.397171 0.9761516,0.903427 0.354694,0.504842 0.364188,1.060918 0.0095,0.556077 -0.285576,1.065064 l -0.7504357,-0.399297 q 0.2809242,-0.571866 0.1188711,-1.057288 -0.1582018,-0.482985 -0.8090539,-0.894777 -0.6778104,-0.428847 -1.1481385,-0.375887 -0.4640402,0.05155 -0.6857739,0.402005 -0.1924941,0.304244 -0.097244,0.639543 0.091399,0.332863 0.8687026,1.115873 0.7835917,0.781596 1.0250316,1.150067 0.3491917,0.53911 0.3623809,1.038204 0.015626,0.495242 -0.2718969,0.949683 -0.2850862,0.45059 -0.7965262,0.68786 -0.5090034,0.233418 -1.1355788,0.149772 -0.6202876,-0.08506 -1.2249254,-0.467613 -0.7663879,-0.48489 -1.1449746,-1.037205 -0.3747354,-0.549878 -0.388628,-1.184238 -0.0076,-0.635774 0.3351757,-1.211646 z"
                 style="font-size:9.33333px;fill:#f4e326;fill-opacity:1;stroke:#f4e326;stroke-opacity:1"
                 id="path88482" />
              <path
                 d="m 8.2943784,-34.980071 6.3399206,-3.320256 0.715011,0.629259 -2.361177,6.82182 -0.756064,-0.665388 0.751788,-2.033817 -2.097136,-1.845623 -1.8875952,1.03423 z m 3.2596306,-0.785935 1.700289,1.49637 0.698958,-1.849621 q 0.317521,-0.84366 0.559489,-1.353139 -0.520314,0.398073 -1.113292,0.720055 z"
                 style="font-size:9.33333px;fill:#f4e326;fill-opacity:1;stroke:#f4e326;stroke-opacity:1"
                 id="path88484" />
            </g>
          </g>
          <g
             id="g108290">
            <g
               id="g108166">
              <path
                 style="fill:none;stroke:#dd2217;stroke-width:0.7;stroke-linecap:round;stroke-linejoin:miter;stroke-miterlimit:4;stroke-dasharray:none;stroke-opacity:1"
                 d="m -43.203343,23.615128 c 2.580131,-1.303842 4.860043,-0.960985 7.089302,0 2.399692,1.034456 4.809746,0.842722 7.089301,0 4.221347,-1.560576 7.379192,-0.873556 10.530707,0 2.469302,0.684458 5.094452,0.910676 7.846411,0 2.1470679,-0.710503 3.8308691,-0.560831 5.5062569,0 2.2591276,0.756239 4.49275034,1.265201 8.6035209,0 3.143454,-0.967484 4.9902514,-0.09136 7.3670892,0"
                 id="path93378" />
              <path
                 style="fill:none;stroke:#dd2217;stroke-width:0.7;stroke-linecap:round;stroke-linejoin:miter;stroke-miterlimit:4;stroke-dasharray:none;stroke-opacity:1"
                 d="m -43.203343,21.20294 c 2.580131,-1.303842 4.860043,-0.960985 7.089302,0 2.399692,1.034456 4.809746,0.842722 7.089301,0 4.221347,-1.560576 7.379192,-0.873556 10.530707,0 2.469302,0.684458 5.094452,0.910676 7.846411,0 2.1470679,-0.710503 3.8308691,-0.560831 5.5062569,0 2.2591276,0.756239 4.49275034,1.265201 8.6035209,0 3.143454,-0.967484 4.9902514,-0.09136 7.3670892,0"
                 id="path94755" />
              <path
                 style="fill:none;stroke:#dd2217;stroke-width:0.7;stroke-linecap:round;stroke-linejoin:miter;stroke-miterlimit:4;stroke-dasharray:none;stroke-opacity:1"
                 d="m -43.203343,22.409035 c 2.580131,-1.303842 4.860043,-0.960985 7.089302,0 2.399692,1.034456 4.809746,0.842722 7.089301,0 4.221347,-1.560576 7.379192,-0.873556 10.530707,0 2.469302,0.684458 5.094452,0.910676 7.846411,0 2.1470679,-0.710503 3.8308691,-0.560831 5.5062569,0 2.2591276,0.756239 4.49275034,1.265201 8.6035209,0 3.143454,-0.967484 4.9902514,-0.09136 7.3670892,0"
                 id="path94757" />
            </g>
            <path
               style="fill:#dd2217;fill-opacity:1;stroke-width:0.0472125"
               d="m -16.187004,6.9193882 c -5.35929,0 -9.70439,5.9244138 -9.70439,13.2316748 0,0.109685 0.01032,0.21576 0.01222,0.324808 2.739349,-0.464268 5.02771,0.07995 7.31138,0.735092 2.59319,0.892327 5.05331,0.767097 7.42951,0 1.78069,-0.609871 3.22604,-0.572112 4.62308,-0.184248 0.014,-0.290866 0.0325,-0.579954 0.0325,-0.875652 0,-7.307261 -4.3451,-13.2316748 -9.70439,-13.2316748 z"
               id="path7-3" />
            <g
               id="g108143"
               style="stroke:#dd2217;stroke-opacity:1">
              <path
                 id="path106675"
                 style="fill:none;stroke:#dd2217;stroke-width:0.6;stroke-linecap:round;stroke-linejoin:miter;stroke-miterlimit:4;stroke-dasharray:none;stroke-opacity:1"
                 d="M -16.187049,6.5271955 V -25.825728" />
              <path
                 id="path107199"
                 style="fill:none;stroke:#dd2217;stroke-width:0.6;stroke-linecap:round;stroke-linejoin:miter;stroke-miterlimit:4;stroke-dasharray:none;stroke-opacity:1"
                 d="M -20.131497,7.6064104 -27.853248,-21.211558" />
              <path
                 id="path107193"
                 style="fill:none;stroke:#dd2217;stroke-width:0.6;stroke-linecap:round;stroke-linejoin:miter;stroke-miterlimit:4;stroke-dasharray:none;stroke-opacity:1"
                 d="M -23.143157,10.278955 -35.666748,-11.412543" />
              <path
                 id="path107187"
                 style="fill:none;stroke:#dd2217;stroke-width:0.6;stroke-linecap:round;stroke-linejoin:miter;stroke-miterlimit:4;stroke-dasharray:none;stroke-opacity:1"
                 d="M -25.022954,13.491382 -39.948679,-1.4343433" />
              <path
                 id="path107181"
                 style="fill:none;stroke:#dd2217;stroke-width:0.6;stroke-linecap:round;stroke-linejoin:miter;stroke-miterlimit:4;stroke-dasharray:none;stroke-opacity:1"
                 d="M -26.064246,16.966987 -42.225797,7.6361118" />
              <path
                 id="path108034"
                 style="fill:none;stroke:#dd2217;stroke-width:0.6;stroke-linecap:round;stroke-linejoin:miter;stroke-miterlimit:4;stroke-dasharray:none;stroke-opacity:1"
                 d="M -12.242601,7.6064104 -4.52085,-21.211558" />
              <path
                 id="path108036"
                 style="fill:none;stroke:#dd2217;stroke-width:0.6;stroke-linecap:round;stroke-linejoin:miter;stroke-miterlimit:4;stroke-dasharray:none;stroke-opacity:1"
                 d="M -9.230941,10.278955 3.29265,-11.412543" />
              <path
                 id="path108038"
                 style="fill:none;stroke:#dd2217;stroke-width:0.6;stroke-linecap:round;stroke-linejoin:miter;stroke-miterlimit:4;stroke-dasharray:none;stroke-opacity:1"
                 d="M -7.351144,13.491382 7.574581,-1.4343433" />
              <path
                 id="path108040"
                 style="fill:none;stroke:#dd2217;stroke-width:0.6;stroke-linecap:round;stroke-linejoin:miter;stroke-miterlimit:4;stroke-dasharray:none;stroke-opacity:1"
                 d="M -6.309852,16.966987 9.851699,7.6361118" />
            </g>
          </g>
        </g>
        <g
           id="g124972">
          <g
             id="g119394"
             transform="matrix(1.0328316,0,0,1.0328316,-1.7953955,-3.0316123)">
            <path
               id="path115864"
               style="fill:#ffffff;fill-opacity:1;stroke:#000000;stroke-width:0.345;stroke-linecap:butt;stroke-linejoin:round;stroke-miterlimit:4;stroke-dasharray:none;stroke-opacity:1"
               d="M 2.53515,31.218518 C 2.33984,31.064981 2.09918,31.00504 1.8024,31.081282 c -0.58699,0.150795 -1.41562,0.695277 -2.37599,1.517066 0.73383,1.1417 1.54679,2.250961 2.5749,3.272511 l -3.14563,-2.766074 c -0.39473,0.362656 -0.80681,0.765591 -1.22973,1.200994 0.74443,1.164346 1.56783,2.296498 2.61518,3.33717 l -3.15334,-2.77273 c -0.38296,0.41056 -0.77203,0.84596 -1.16346,1.29966 0.72922,1.131878 1.53745,2.231662 2.55721,3.244917 l -3.04175,-2.674595 c -0.38182,0.456249 -0.76327,0.929046 -1.1412,1.41381 0.69398,1.05734 1.46663,2.082431 2.42297,3.032662 l -2.83705,-2.494625 c -0.38538,0.507495 -0.76479,1.025407 -1.13393,1.550538 0.63973,0.945086 1.35053,1.860997 2.21099,2.715962 l -2.54349,-2.236516 c -0.39138,0.57086 -0.76991,1.146955 -1.12819,1.723702 0.56223,0.792169 1.1831,1.560718 1.9119,2.284876 l -2.15163,-1.891737 c -0.39653,0.654608 -0.76547,1.306716 -1.10033,1.949218 0.45039,0.590567 0.93936,1.165702 1.49179,1.71461 l -1.63583,-1.438898 c -0.39411,0.776085 -0.73122,1.533349 -1.00379,2.259776 0.27628,0.323844 0.56835,0.641305 0.87982,0.950783 l -0.92979,-0.817464 c -0.0207,0.05649 -0.0443,0.114412 -0.0641,0.170484 -0.68183,1.93044 0.11724,4.43578 0.11724,4.43578 0,0 2.59542,0.423105 4.40503,-0.534396 0.0526,-0.02781 0.10661,-0.05949 0.15946,-0.08821 L -7.57529,50.64067 c 0.3518,0.262724 0.70844,0.504908 1.06929,0.730721 0.67861,-0.376133 1.37848,-0.820444 2.08839,-1.324087 l -1.66319,-1.40718 c 0.62397,0.46598 1.26437,0.865156 1.91459,1.224093 0.58646,-0.425447 1.17743,-0.886011 1.76682,-1.374234 L -4.58594,46.63915 c 0.82319,0.614753 1.67425,1.116046 2.54029,1.556052 0.51799,-0.438977 1.03235,-0.897885 1.53966,-1.368729 l -2.58506,-2.187899 c 0.97189,0.725802 1.98212,1.294632 3.01079,1.788877 0.46533,-0.442145 0.92202,-0.893392 1.36752,-1.349018 l -2.88363,-2.44062 c 1.08018,0.806674 2.20748,1.420676 3.35514,1.952133 0.42412,-0.444924 0.83588,-0.891573 1.23121,-1.33616 l -3.09167,-2.616733 c 1.15182,0.860177 2.35801,1.498242 3.58457,2.053622 0.39141,-0.453717 0.76506,-0.902427 1.11503,-1.341444 L 1.39302,38.636692 c 1.18299,0.883452 2.42341,1.531771 3.68433,2.097442 0.36868,-0.482193 0.70685,-0.948891 1.00771,-1.392532 L 2.88788,36.635717 c 1.16125,0.867219 2.37751,1.50857 3.61446,2.067072 0.6721,-1.070481 1.08942,-1.969808 1.15252,-2.572558 0.0365,-0.348287 -0.0924,-0.598227 -0.3258,-0.774486 C 6.31773,34.59196 3.34264,35.2121 3.34264,35.2121 c 0,0 0.17744,-3.03368 -0.72637,-3.922099 -0.0261,-0.02563 -0.0532,-0.04955 -0.0811,-0.07148 z" />
            <path
               id="path118219"
               style="fill:#ffffff;fill-opacity:1;fill-rule:evenodd;stroke:#000000;stroke-width:0.345;stroke-miterlimit:4;stroke-dasharray:none;stroke-opacity:1"
               d="m 3.35427,35.199596 -7.13867,7.955079 -7.13672,7.955078 -11.537109,12.896484 c 1.176779,-0.355691 1.543959,-0.190927 1.916019,-0.0293 l 10.25,-12.324218 6.82226,-8.226563 z" />
          </g>
          <g
             id="g124700">
            <path
               d="m -24.512207,44.735871 0.494773,-0.454358 0.770144,-0.72008 0.510143,-0.629224 -0.38819,0.707282 0.04266,0.140528 0.106662,0.169306 0.334447,0.424476 1.197039,1.258722 1.19704,1.258722 6.317372,6.378332 -0.252819,0.254177 -0.25282,0.254177 -8.339804,-8.429985 -0.517652,-0.486302 -0.34514,-0.247245 -0.19609,-0.106045 -0.07752,-0.04619 -0.196577,0.06573 -0.403595,0.208277"
               stroke="#000000"
               stroke-width="0.0342464"
               id="path119569"
               style="fill:#ffffff;fill-opacity:1;stroke:#000000;stroke-width:0.288017;stroke-miterlimit:4;stroke-dasharray:none;stroke-opacity:1" />
            <path
               style="fill:#ffffff;fill-opacity:1;stroke:#000000;stroke-width:0.288;stroke-linecap:round;stroke-linejoin:round;stroke-miterlimit:4;stroke-dasharray:none;stroke-opacity:1"
               d="m -15.268192,53.02373 -0.0073,-0.152129 0.505861,-0.508123 0.155694,0.01084 1.735143,1.057841 c 0,0 -0.436245,0.474759 -0.660782,0.693458 -0.224561,0.218677 -0.686593,0.631577 -0.686593,0.631577 l -1.041989,-1.733393 z"
               id="path123579" />
            <path
               style="fill:#ffffff;fill-opacity:1;stroke:#000000;stroke-width:0.288;stroke-linecap:round;stroke-linejoin:round;stroke-miterlimit:4;stroke-dasharray:none;stroke-opacity:1"
               d="m -13.99268,55.244296 0.822071,-0.800755 0.724121,-0.764807 1.075045,0.641474 5.9498888,5.969006 c 0,0 0.2021863,0.04412 0.2744015,0.06078 0.072214,0.01665 0.041387,-0.01369 0.1593827,0.03823 0.1180278,0.05176 0.4904812,0.340647 0.4904812,0.340647 l 0.025492,0.07331 c 0,0 -0.00792,0.03358 -0.060896,0.111267 -0.052865,0.07767 -0.280824,0.340886 -0.280824,0.340886 0,0 -0.3327809,0.35283 -0.5342377,0.549761 -0.201457,0.196931 -0.447313,0.420837 -0.6762076,0.627786 -0.2288972,0.206947 -0.5470483,0.485263 -0.6968368,0.613545 -0.1497835,0.128286 -0.1966054,0.163658 -0.1966054,0.163658 l -0.184711,0.01617 c 0,0 -0.1772557,-0.222495 -0.2215966,-0.33637 -0.044337,-0.113884 -0.047684,-0.247146 -0.059833,-0.327645 -0.012151,-0.08049 -0.018291,-0.152199 -0.018291,-0.152199 l -0.1664159,-0.236566 -5.8826952,-5.997401 -0.335213,-0.596649 -0.206489,-0.33404 z"
               id="path119579" />
            <g
               id="g121611"
               transform="matrix(1.3093814,0,0,1.3093814,11.193999,-11.711088)">
              <path
                 d="m -25.100385,43.639327 c -0.124133,0.116711 -0.640802,0.573772 -0.786388,0.695927 -0.145591,0.122148 -0.278679,0.183955 -0.434061,0.286264 -0.155385,0.102302 -0.406884,0.213752 -0.572022,0.290864 -0.165136,0.07711 -0.360041,0.190456 -0.54839,0.252659 -0.18835,0.0622 -0.355263,0.120811 -0.57235,0.17641 -0.217084,0.0556 -0.457253,0.101949 -0.701036,0.133555 -0.243784,0.03162 -0.543283,0.0401 -0.805851,0.04292 -0.262569,0.0029 -0.568381,-0.02029 -0.853569,-0.05716 -0.285188,-0.03687 -0.608384,-0.09062 -0.858481,-0.162235 -0.250094,-0.07161 -0.464728,-0.10746 -0.672299,-0.186056 -0.207572,-0.0786 -0.380931,-0.183105 -0.581929,-0.286066 -0.200993,-0.102961 -0.424436,-0.226467 -0.600819,-0.338651 -0.176382,-0.11218 -0.309914,-0.209946 -0.481714,-0.324268 -0.1718,-0.114323 -0.303316,-0.208787 -0.462754,-0.333915 -0.159434,-0.125128 -0.295485,-0.274259 -0.443441,-0.410041 -0.147958,-0.135784 -0.321969,-0.259916 -0.472136,-0.405457 -0.150162,-0.145547 -0.209782,-0.267151 -0.353072,-0.419683 -0.143294,-0.152527 -0.300542,-0.340368 -0.429216,-0.505475 -0.128696,-0.165083 -0.238437,-0.305287 -0.352875,-0.472201 -0.114438,-0.16691 -0.233654,-0.283808 -0.343363,-0.453153 -0.109702,-0.169347 -0.231241,-0.343362 -0.333779,-0.515054 -0.102537,-0.171691 -0.190081,-0.353004 -0.290933,-0.543588 -0.100851,-0.190588 -0.221841,-0.400309 -0.309953,-0.610467 -0.08811,-0.210161 -0.200121,-0.507688 -0.276487,-0.724664 -0.07637,-0.216976 -0.138023,-0.490416 -0.190849,-0.67243 -0.05282,-0.182017 -0.07619,-0.283766 -0.109662,-0.414906 -0.03348,-0.131144 -0.02979,-0.242709 -0.05257,-0.381501 -0.02278,-0.138793 -0.03902,-0.359846 -0.05729,-0.491162 -0.01827,-0.131317 9.6e-4,-0.171226 -0.0143,-0.314755 -0.01542,-0.14353 -0.0026,-0.36482 10e-7,-0.529368 0.0026,-0.164544 0.0094,-0.32429 0.0143,-0.457822 0.0049,-0.133531 -0.01184,-0.191022 0.01431,-0.343361 0.02618,-0.152339 0.102643,-0.371613 0.171687,-0.55797 0.06904,-0.186353 0.15423,-0.386189 0.243211,-0.557969 0.08899,-0.17178 0.185455,-0.32666 0.286133,-0.472134 0.100677,-0.145479 0.205087,-0.266996 0.314755,-0.400594 0.109667,-0.133595 0.21695,-0.271335 0.343361,-0.400591 0.126408,-0.129258 0.281397,-0.250337 0.414905,-0.371987 0.133509,-0.121652 0.252571,-0.245516 0.386279,-0.357676 0.133708,-0.112157 0.267018,-0.214243 0.414905,-0.314755 0.147887,-0.100512 0.297704,-0.201494 0.472134,-0.286132 0.174433,-0.08464 0.373741,-0.178242 0.562158,-0.244944 0.188415,-0.0667 0.446162,-0.104152 0.598433,-0.135409 0.152269,-0.03126 0.181851,-0.04127 0.313024,-0.04885 0.131176,-0.0076 0.281351,-0.01169 0.443508,-0.01431 0.162157,-0.0026 0.386126,-0.0093 0.529367,0 0.14324,0.0093 0.200138,0.02206 0.32907,0.04292 0.128932,0.02086 0.274206,0.03105 0.414905,0.05723 0.140698,0.02617 0.300443,0.07627 0.429217,0.100148 0.128774,0.02388 0.189516,0.02497 0.371987,0.07154 0.182472,0.04656 0.493529,0.144686 0.715349,0.228925 0.22182,0.08424 0.410083,0.176468 0.615201,0.271837 0.205117,0.09537 0.42696,0.199753 0.6152,0.300443 0.188242,0.100696 0.338563,0.195572 0.515052,0.300444 0.176493,0.104874 0.369533,0.214416 0.543659,0.329074 0.174123,0.114652 0.333695,0.231332 0.500738,0.357671 0.167046,0.126341 0.34584,0.274099 0.50074,0.400592 0.154901,0.126497 0.28326,0.224385 0.429218,0.357675 0.14596,0.133288 0.300422,0.293231 0.443508,0.443508 0.143089,0.15028 0.281353,0.302769 0.414906,0.457823 0.133553,0.155055 0.262327,0.317101 0.386301,0.472135 0.123972,0.155032 0.24238,0.288564 0.357674,0.457823 0.115294,0.169258 0.219365,0.369599 0.32907,0.557969 0.109703,0.188372 0.231048,0.374004 0.32907,0.572284 0.09802,0.19828 0.17642,0.407692 0.257526,0.615202 0.08111,0.207506 0.163144,0.376521 0.228923,0.629514 0.06577,0.252987 0.112993,0.607548 0.143069,0.887038 0.03007,0.279488 0.04267,0.519436 0.04292,0.786893 2.53e-4,0.267455 -0.01757,0.485899 -0.05244,0.739372 -0.03487,0.253472 -0.09768,0.560207 -0.147862,0.777182 -0.05018,0.216973 -0.136535,0.390616 -0.200167,0.572347 -0.06363,0.18173 -0.126473,0.276552 -0.209881,0.438862 -0.08341,0.162311 -0.188084,0.388076 -0.290865,0.543524 -0.102779,0.15545 -0.174107,0.321904 -0.286262,0.462559 -0.112148,0.140659 -0.173831,0.286613 -0.286635,0.405721 z"
                 stroke="#000000"
                 stroke-width="0.0728146"
                 id="path119565"
                 style="fill:#000000;fill-opacity:1;stroke:#000000;stroke-width:0.0233614;stroke-miterlimit:4;stroke-dasharray:none;stroke-opacity:1" />
              <path
                 d="m -35.998293,32.780433 c 0.125584,-0.114424 0.237582,-0.230938 0.363352,-0.336456 0.12577,-0.105517 0.25117,-0.201529 0.390267,-0.296082 0.139099,-0.09455 0.280036,-0.189535 0.4441,-0.269165 0.164064,-0.07963 0.351561,-0.167664 0.528797,-0.230413 0.177236,-0.06275 0.419683,-0.09797 0.562923,-0.127372 0.143241,-0.02941 0.17106,-0.03882 0.294437,-0.04595 0.12338,-0.0071 0.264653,-0.01101 0.417187,-0.01347 0.152534,-0.0026 0.363196,-0.0087 0.497934,0 0.134735,0.0087 0.188259,0.02074 0.309539,0.04037 0.12128,0.01962 0.257921,0.02922 0.390267,0.05383 0.132347,0.02461 0.282624,0.07175 0.403727,0.09421 0.121102,0.02247 0.178267,0.02349 0.349893,0.06729 0.171625,0.0438 0.464222,0.136094 0.672891,0.215325 0.208669,0.07923 0.38573,0.165997 0.578683,0.255705 0.192954,0.08971 0.401623,0.187896 0.578684,0.282625 0.177064,0.09473 0.318462,0.183964 0.484476,0.282626 0.166016,0.09866 0.347615,0.201689 0.511393,0.309538 0.163778,0.107849 0.313879,0.217613 0.471016,0.336456 0.157139,0.118846 0.325301,0.257833 0.471018,0.37681 0.145718,0.118975 0.266447,0.21107 0.403725,0.336457 0.13728,0.125386 0.282604,0.275829 0.417185,0.417184 0.134582,0.141357 0.26465,0.284794 0.39027,0.430644 0.125616,0.145847 0.246763,0.298273 0.36335,0.444099 0.116588,0.145829 0.22798,0.271446 0.336457,0.43064 0.108478,0.159202 0.206343,0.347659 0.30954,0.524851 0.103197,0.177196 0.217327,0.351801 0.30954,0.538311 0.09221,0.186508 0.165949,0.383495 0.242249,0.578682 0.0763,0.19519 0.153462,0.354191 0.215327,0.592145 0.06186,0.23795 0.106287,0.571494 0.134576,0.834388 0.02829,0.262896 0.04013,0.488619 0.04037,0.740183 2.4e-4,0.251564 -0.0076,0.528666 -0.04037,0.7671 -0.0328,0.238435 -0.05325,0.455344 -0.100457,0.659433 -0.0472,0.204087 -0.122306,0.394276 -0.18216,0.565224 -0.05985,0.170946 -0.136868,0.304892 -0.215325,0.457558 -0.07846,0.152669 -0.159017,0.31134 -0.255707,0.45756 -0.09669,0.146223 -0.217483,0.284903 -0.322998,0.417183 -0.105526,0.132274 -0.203424,0.264784 -0.30954,0.376811 -0.106108,0.112037 -0.206212,0.186298 -0.323004,0.296076 -0.11677,0.1098 -0.239868,0.248467 -0.376802,0.36336 -0.136956,0.114871 -0.297945,0.22675 -0.4441,0.323 -0.146156,0.09625 -0.275302,0.183167 -0.430643,0.255704 -0.15534,0.07254 -0.320785,0.143349 -0.497934,0.201869 -0.177149,0.05851 -0.361028,0.09574 -0.565226,0.148037 -0.204196,0.0523 -0.430116,0.104845 -0.659432,0.13458 -0.229318,0.02973 -0.466284,0.03772 -0.713266,0.04037 -0.246984,0.0026 -0.498831,0.0078 -0.7671,-0.02691 -0.268266,-0.03469 -0.599133,-0.12105 -0.834391,-0.188412 -0.235255,-0.06736 -0.383426,-0.127934 -0.578683,-0.201869 -0.195253,-0.07393 -0.403091,-0.145376 -0.592141,-0.242245 -0.189052,-0.09687 -0.372384,-0.230918 -0.538309,-0.336456 -0.165928,-0.105541 -0.309431,-0.188534 -0.471016,-0.296082 -0.161588,-0.10755 -0.347988,-0.23221 -0.497935,-0.349893 -0.149952,-0.117683 -0.251087,-0.222167 -0.390265,-0.349895 -0.13918,-0.127731 -0.302859,-0.280276 -0.444108,-0.41718 -0.141339,-0.136813 -0.268941,-0.260251 -0.403722,-0.403727 -0.134788,-0.143478 -0.282713,-0.302264 -0.403727,-0.45756 -0.121025,-0.155286 -0.215326,-0.314011 -0.322999,-0.471018 -0.107674,-0.157006 -0.219784,-0.311707 -0.323001,-0.471016 -0.103214,-0.159307 -0.199626,-0.322976 -0.296079,-0.484473 -0.09646,-0.161504 -0.187746,-0.305204 -0.282627,-0.48448 -0.09487,-0.179272 -0.199721,-0.394451 -0.28262,-0.592142 -0.0829,-0.197688 -0.143486,-0.388053 -0.215326,-0.59214 -0.07184,-0.204089 -0.165636,-0.461308 -0.215329,-0.632518 -0.04969,-0.171208 -0.06272,-0.266928 -0.09421,-0.390266 -0.03149,-0.123339 -0.07277,-0.219346 -0.09421,-0.349893 -0.02144,-0.130549 -0.06356,-0.320589 -0.08075,-0.444102 -0.01719,-0.123514 9.61e-4,-0.161066 -0.01347,-0.29608 -0.0145,-0.135017 -0.0026,-0.343164 2e-6,-0.497936 0.0026,-0.15477 0.0089,-0.305048 0.01347,-0.430642 0.0046,-0.125595 -0.01114,-0.179685 0.01347,-0.322999 0.02461,-0.143311 0.09655,-0.349541 0.161494,-0.524851 0.06495,-0.175306 0.145081,-0.363263 0.228791,-0.52485 0.08371,-0.161585 0.174443,-0.307261 0.269165,-0.444101 0.09472,-0.13684 0.192921,-0.251148 0.296082,-0.37681 0.103161,-0.125663 0.20407,-0.255225 0.322999,-0.37681 0.118918,-0.121588 0.264691,-0.235473 0.390267,-0.349892 z"
                 fill="#ffffff"
                 stroke="#000000"
                 id="path119567"
                 style="fill:#ffffff;fill-opacity:1;stroke:#000000;stroke-width:0.0228816;stroke-miterlimit:4;stroke-dasharray:none;stroke-opacity:1" />
              <path
                 d="m -35.998293,32.780433 10.456678,10.5643"
                 fill="none"
                 stroke="#bebebe"
                 stroke-width="0.136985"
                 id="path119581"
                 style="fill:#ffffff;fill-opacity:1;stroke:#000000;stroke-width:0.0457631;stroke-miterlimit:4;stroke-dasharray:none;stroke-opacity:1" />
              <path
                 d="m -35.634876,32.443978 10.402977,10.523967"
                 fill="none"
                 stroke="#bebebe"
                 stroke-width="0.136985"
                 id="path119583"
                 style="fill:#ffffff;fill-opacity:1;stroke:#000000;stroke-width:0.0457631;stroke-miterlimit:4;stroke-dasharray:none;stroke-opacity:1" />
              <path
                 d="M -24.909032,42.550829 -35.244718,32.147851"
                 fill="none"
                 stroke="#bebebe"
                 stroke-width="0.136985"
                 id="path119585"
                 style="fill:#ffffff;fill-opacity:1;stroke:#000000;stroke-width:0.0457631;stroke-miterlimit:4;stroke-dasharray:none;stroke-opacity:1" />
              <path
                 d="M -34.800637,31.878686 -24.653456,42.09316"
                 fill="none"
                 stroke="#bebebe"
                 stroke-width="0.136985"
                 id="path119587"
                 style="fill:#ffffff;fill-opacity:1;stroke:#000000;stroke-width:0.0457631;stroke-miterlimit:4;stroke-dasharray:none;stroke-opacity:1" />
              <path
                 d="m -24.437993,41.635709 -9.833739,-9.987392"
                 fill="none"
                 stroke="#bebebe"
                 stroke-width="0.136985"
                 id="path119589"
                 style="fill:#ffffff;fill-opacity:1;stroke:#000000;stroke-width:0.0457631;stroke-miterlimit:4;stroke-dasharray:none;stroke-opacity:1" />
              <path
                 d="m -33.708853,31.520969 9.453007,9.549452"
                 fill="none"
                 stroke="#bebebe"
                 stroke-width="0.136985"
                 id="path119591"
                 style="fill:#ffffff;fill-opacity:1;stroke:#000000;stroke-width:0.0457631;stroke-miterlimit:4;stroke-dasharray:none;stroke-opacity:1" />
              <path
                 d="m -24.155458,40.410876 -8.841903,-8.949527"
                 fill="none"
                 stroke="#bebebe"
                 stroke-width="0.136985"
                 id="path119593"
                 style="fill:#ffffff;fill-opacity:1;stroke:#000000;stroke-width:0.0457631;stroke-miterlimit:4;stroke-dasharray:none;stroke-opacity:1" />
              <path
                 d="m -24.115127,39.64393 -8.074739,-8.142031"
                 fill="none"
                 stroke="#bebebe"
                 stroke-width="0.136985"
                 id="path119595"
                 style="fill:#ffffff;fill-opacity:1;stroke:#000000;stroke-width:0.0457631;stroke-miterlimit:4;stroke-dasharray:none;stroke-opacity:1" />
              <path
                 d="m -31.438373,31.673086 7.283027,7.230421"
                 fill="none"
                 stroke="#bebebe"
                 stroke-width="0.136985"
                 id="path119597"
                 style="fill:#ffffff;fill-opacity:1;stroke:#000000;stroke-width:0.0457631;stroke-miterlimit:4;stroke-dasharray:none;stroke-opacity:1" />
              <path
                 d="m -30.40395,31.947951 6.113866,6.12132"
                 fill="none"
                 stroke="#bebebe"
                 stroke-width="0.136985"
                 id="path119599"
                 style="fill:#ffffff;fill-opacity:1;stroke:#000000;stroke-width:0.0457631;stroke-miterlimit:4;stroke-dasharray:none;stroke-opacity:1" />
              <path
                 d="m -29.26208,32.486281 4.47586,4.412077"
                 fill="none"
                 stroke="#bebebe"
                 stroke-width="0.136985"
                 id="path119601"
                 style="fill:#ffffff;fill-opacity:1;stroke:#000000;stroke-width:0.0457631;stroke-miterlimit:4;stroke-dasharray:none;stroke-opacity:1" />
              <path
                 d="M -36.388669,33.130262 -25.864702,43.64086"
                 fill="none"
                 stroke="#bebebe"
                 stroke-width="0.136985"
                 id="path119603"
                 style="fill:#ffffff;fill-opacity:1;stroke:#000000;stroke-width:0.0457631;stroke-miterlimit:4;stroke-dasharray:none;stroke-opacity:1" />
              <path
                 d="M -36.711536,33.507114 -26.24127,44.004122"
                 fill="none"
                 stroke="#bebebe"
                 stroke-width="0.136985"
                 id="path119605"
                 style="fill:#ffffff;fill-opacity:1;stroke:#000000;stroke-width:0.0457631;stroke-miterlimit:4;stroke-dasharray:none;stroke-opacity:1" />
              <path
                 d="M -26.685568,44.327143 -37.007663,33.883837"
                 fill="none"
                 stroke="#bebebe"
                 stroke-width="0.136985"
                 id="path119607"
                 style="fill:#ffffff;fill-opacity:1;stroke:#000000;stroke-width:0.0457631;stroke-miterlimit:4;stroke-dasharray:none;stroke-opacity:1" />
              <path
                 d="m -37.276828,34.328046 10.160771,10.254806"
                 fill="none"
                 stroke="#bebebe"
                 stroke-width="0.136985"
                 id="path119609"
                 style="fill:#ffffff;fill-opacity:1;stroke:#000000;stroke-width:0.0457631;stroke-miterlimit:4;stroke-dasharray:none;stroke-opacity:1" />
              <path
                 d="m -37.505661,34.852897 9.891605,9.931938"
                 fill="none"
                 stroke="#bebebe"
                 stroke-width="0.136985"
                 id="path119611"
                 style="fill:#ffffff;fill-opacity:1;stroke:#000000;stroke-width:0.0457631;stroke-miterlimit:4;stroke-dasharray:none;stroke-opacity:1" />
              <path
                 d="m -37.667203,35.377751 9.487856,9.55515"
                 fill="none"
                 stroke="#bebebe"
                 stroke-width="0.136985"
                 id="path119613"
                 style="fill:#ffffff;fill-opacity:1;stroke:#000000;stroke-width:0.0457631;stroke-miterlimit:4;stroke-dasharray:none;stroke-opacity:1" />
              <path
                 d="m -37.693947,36.13139 8.855278,8.935936"
                 fill="none"
                 stroke="#bebebe"
                 stroke-width="0.136985"
                 id="path119615"
                 style="fill:#ffffff;fill-opacity:1;stroke:#000000;stroke-width:0.0457631;stroke-miterlimit:4;stroke-dasharray:none;stroke-opacity:1" />
              <path
                 d="m -37.626216,36.940902 8.074302,8.166798"
                 fill="none"
                 stroke="#bebebe"
                 stroke-width="0.136985"
                 id="path119617"
                 style="fill:#ffffff;fill-opacity:1;stroke:#000000;stroke-width:0.0457631;stroke-miterlimit:4;stroke-dasharray:none;stroke-opacity:1" />
              <path
                 d="m -37.505662,37.719442 7.186582,7.361493"
                 fill="none"
                 stroke="#bebebe"
                 stroke-width="0.136985"
                 id="path119619"
                 style="fill:#ffffff;fill-opacity:1;stroke:#000000;stroke-width:0.0457631;stroke-miterlimit:4;stroke-dasharray:none;stroke-opacity:1" />
              <path
                 d="m -37.196166,38.742183 6.04263,6.150252"
                 fill="none"
                 stroke="#bebebe"
                 stroke-width="0.136985"
                 id="path119621"
                 style="fill:#ffffff;fill-opacity:1;stroke:#000000;stroke-width:0.0457631;stroke-miterlimit:4;stroke-dasharray:none;stroke-opacity:1" />
              <path
                 d="m -36.698164,39.926466 4.373715,4.521888"
                 fill="none"
                 stroke="#bebebe"
                 stroke-width="0.136985"
                 id="path119623"
                 style="fill:#ffffff;fill-opacity:1;stroke:#000000;stroke-width:0.0457631;stroke-miterlimit:4;stroke-dasharray:none;stroke-opacity:1" />
              <path
                 d="m -30.319118,45.080937 6.163627,-6.177205"
                 fill="none"
                 stroke="#bebebe"
                 stroke-width="0.136985"
                 id="path119625"
                 style="fill:#ffffff;fill-opacity:1;stroke:#000000;stroke-width:0.0457631;stroke-miterlimit:4;stroke-dasharray:none;stroke-opacity:1" />
              <path
                 d="m -24.290039,38.069271 -6.863493,6.823168"
                 fill="none"
                 stroke="#bebebe"
                 stroke-width="0.136985"
                 id="path119627"
                 style="fill:#ffffff;fill-opacity:1;stroke:#000000;stroke-width:0.0457631;stroke-miterlimit:4;stroke-dasharray:none;stroke-opacity:1" />
              <path
                 d="m -31.732197,44.690561 7.226907,-7.21333"
                 fill="none"
                 stroke="#bebebe"
                 stroke-width="0.136985"
                 id="path119629"
                 style="fill:#ffffff;fill-opacity:1;stroke:#000000;stroke-width:0.0457631;stroke-miterlimit:4;stroke-dasharray:none;stroke-opacity:1" />
              <path
                 d="m -32.32434,44.448354 7.576747,-7.549773"
                 fill="none"
                 stroke="#bebebe"
                 stroke-width="0.136985"
                 id="path119631"
                 style="fill:#ffffff;fill-opacity:1;stroke:#000000;stroke-width:0.0457631;stroke-miterlimit:4;stroke-dasharray:none;stroke-opacity:1" />
              <path
                 d="m -32.862559,44.111898 7.805573,-7.751653"
                 fill="none"
                 stroke="#bebebe"
                 stroke-width="0.136985"
                 id="path119633"
                 style="fill:#ffffff;fill-opacity:1;stroke:#000000;stroke-width:0.0457631;stroke-miterlimit:4;stroke-dasharray:none;stroke-opacity:1" />
              <path
                 d="m -33.3336,43.815773 7.967128,-7.980478"
                 fill="none"
                 stroke="#bebebe"
                 stroke-width="0.136985"
                 id="path119635"
                 style="fill:#ffffff;fill-opacity:1;stroke:#000000;stroke-width:0.0457631;stroke-miterlimit:4;stroke-dasharray:none;stroke-opacity:1" />
              <path
                 d="m -33.8316,43.465946 8.128443,-8.06115"
                 fill="none"
                 stroke="#bebebe"
                 stroke-width="0.136985"
                 id="path119637"
                 style="fill:#ffffff;fill-opacity:1;stroke:#000000;stroke-width:0.0457631;stroke-miterlimit:4;stroke-dasharray:none;stroke-opacity:1" />
              <path
                 d="m -26.066356,34.960564 -8.155401,8.155401"
                 fill="none"
                 stroke="#bebebe"
                 stroke-width="0.136985"
                 id="path119639"
                 style="fill:#ffffff;fill-opacity:1;stroke:#000000;stroke-width:0.0457631;stroke-miterlimit:4;stroke-dasharray:none;stroke-opacity:1" />
              <path
                 d="m -34.666055,42.698781 8.209319,-8.168995"
                 fill="none"
                 stroke="#bebebe"
                 stroke-width="0.136985"
                 id="path119641"
                 style="fill:#ffffff;fill-opacity:1;stroke:#000000;stroke-width:0.0457631;stroke-miterlimit:4;stroke-dasharray:none;stroke-opacity:1" />
              <path
                 d="m -26.873852,34.112715 -8.195744,8.182348"
                 fill="none"
                 stroke="#bebebe"
                 stroke-width="0.136985"
                 id="path119643"
                 style="fill:#ffffff;fill-opacity:1;stroke:#000000;stroke-width:0.0457631;stroke-miterlimit:4;stroke-dasharray:none;stroke-opacity:1" />
              <path
                 d="m -35.473551,41.837581 8.195732,-8.06115"
                 fill="none"
                 stroke="#bebebe"
                 stroke-width="0.136985"
                 id="path119645"
                 style="fill:#ffffff;fill-opacity:1;stroke:#000000;stroke-width:0.0457631;stroke-miterlimit:4;stroke-dasharray:none;stroke-opacity:1" />
              <path
                 d="m -27.748638,33.39945 -8.047779,7.967116"
                 fill="none"
                 stroke="#bebebe"
                 stroke-width="0.136985"
                 id="path119647"
                 style="fill:#ffffff;fill-opacity:1;stroke:#000000;stroke-width:0.0457631;stroke-miterlimit:4;stroke-dasharray:none;stroke-opacity:1" />
              <path
                 d="m -36.119503,40.895505 7.899825,-7.832537"
                 fill="none"
                 stroke="#bebebe"
                 stroke-width="0.136985"
                 id="path119649"
                 style="fill:#ffffff;fill-opacity:1;stroke:#000000;stroke-width:0.0457631;stroke-miterlimit:4;stroke-dasharray:none;stroke-opacity:1" />
              <path
                 d="m -36.415409,40.410875 7.684368,-7.657393"
                 fill="none"
                 stroke="#bebebe"
                 stroke-width="0.136985"
                 id="path119651"
                 style="fill:#ffffff;fill-opacity:1;stroke:#000000;stroke-width:0.0457631;stroke-miterlimit:4;stroke-dasharray:none;stroke-opacity:1" />
              <path
                 d="m -36.698164,39.926466 7.436065,-7.440139"
                 fill="none"
                 stroke="#bebebe"
                 stroke-width="0.136985"
                 id="path119653"
                 style="fill:#ffffff;fill-opacity:1;stroke:#000000;stroke-width:0.0457631;stroke-miterlimit:4;stroke-dasharray:none;stroke-opacity:1" />
              <path
                 d="M -36.980702,39.334435 -29.79412,32.1884"
                 fill="none"
                 stroke="#bebebe"
                 stroke-width="0.136985"
                 id="path119655"
                 style="fill:#ffffff;fill-opacity:1;stroke:#000000;stroke-width:0.0457631;stroke-miterlimit:4;stroke-dasharray:none;stroke-opacity:1" />
              <path
                 d="m -37.196166,38.742183 6.79205,-6.794223"
                 fill="none"
                 stroke="#bebebe"
                 stroke-width="0.136985"
                 id="path119657"
                 style="fill:#ffffff;fill-opacity:1;stroke:#000000;stroke-width:0.0457631;stroke-miterlimit:4;stroke-dasharray:none;stroke-opacity:1" />
              <path
                 d="m -37.411409,38.109602 6.365495,-6.392459"
                 fill="none"
                 stroke="#bebebe"
                 stroke-width="0.136985"
                 id="path119659"
                 style="fill:#ffffff;fill-opacity:1;stroke:#000000;stroke-width:0.0457631;stroke-miterlimit:4;stroke-dasharray:none;stroke-opacity:1" />
              <path
                 d="m -37.511582,37.374285 5.712093,-5.81862"
                 fill="none"
                 stroke="#bebebe"
                 stroke-width="0.136985"
                 id="path119661"
                 style="fill:#ffffff;fill-opacity:1;stroke:#000000;stroke-width:0.0457631;stroke-miterlimit:4;stroke-dasharray:none;stroke-opacity:1" />
              <path
                 d="m -37.693946,36.629323 5.194803,-5.167844"
                 fill="none"
                 stroke="#bebebe"
                 stroke-width="0.136985"
                 id="path119663"
                 style="fill:#ffffff;fill-opacity:1;stroke:#000000;stroke-width:0.0457631;stroke-miterlimit:4;stroke-dasharray:none;stroke-opacity:1" />
              <path
                 d="m -37.680577,35.70074 4.266098,-4.225764"
                 fill="none"
                 stroke="#bebebe"
                 stroke-width="0.136985"
                 id="path119665"
                 style="fill:#ffffff;fill-opacity:1;stroke:#000000;stroke-width:0.0457631;stroke-miterlimit:4;stroke-dasharray:none;stroke-opacity:1" />
            </g>
            <path
               style="fill:none;stroke:#000000;stroke-width:0.28;stroke-linecap:butt;stroke-linejoin:miter;stroke-miterlimit:4;stroke-dasharray:none;stroke-opacity:1"
               d="m -14.30234,54.629523 c 0.244778,0.604983 0.421459,0.848522 0.583955,1.063781"
               id="path124106" />
            <path
               style="fill:none;stroke:#000000;stroke-width:0.28;stroke-linecap:butt;stroke-linejoin:miter;stroke-miterlimit:4;stroke-dasharray:none;stroke-opacity:1"
               d="m -13.042969,53.339844 0.875,0.507813"
               id="path124354" />
          </g>
        </g>
      </g>
      <g
         id="g139870"
         transform="matrix(1.0161007,0,0,0.99977707,139.16854,-4.0907835)">
        <path
           style="fill:none;stroke:#017f35;stroke-width:1px;stroke-linecap:butt;stroke-linejoin:miter;stroke-opacity:1"
           d="m -252.04554,72.631148 c -10.19114,61.523702 21.69641,77.284702 38.57392,84.311672"
           id="path126032" />
        <path
           style="fill:#017f35;fill-opacity:1;stroke:none;stroke-width:1px;stroke-linecap:butt;stroke-linejoin:miter;stroke-opacity:1"
           d="m -222.26207,152.84454 c 1.17068,-6.16445 -1.33904,-9.43647 -5.20519,-11.97425 -0.30341,5.2345 1.62663,9.36479 5.20519,11.97425 z"
           id="path126318" />
        <path
           style="fill:#017f35;fill-opacity:1;stroke:none;stroke-width:1px;stroke-linecap:butt;stroke-linejoin:miter;stroke-opacity:1"
           d="m -231.49207,146.85836 c 1.47623,-6.0985 -0.86742,-9.49145 -4.60239,-12.21862 -0.56372,5.2129 1.15823,9.43418 4.60239,12.21862 z"
           id="path126708" />
        <path
           style="fill:#017f35;fill-opacity:1;stroke:none;stroke-width:0.938624px;stroke-linecap:butt;stroke-linejoin:miter;stroke-opacity:1"
           d="m -239.824,139.17975 c 2.2152,-5.54325 0.56775,-9.09717 -2.4409,-12.22858 -1.25826,4.84193 -0.29495,9.08624 2.4409,12.22858 z"
           id="path126710" />
        <path
           style="fill:#017f35;fill-opacity:1;stroke:none;stroke-width:1.0128px;stroke-linecap:butt;stroke-linejoin:miter;stroke-opacity:1"
           d="m -246.50183,129.25718 c 3.70659,-5.24567 2.8312,-9.34825 0.40936,-13.33842 -2.52035,4.74511 -2.53934,9.40261 -0.40936,13.33842 z"
           id="path126712" />
        <path
           style="fill:#017f35;fill-opacity:1;stroke:none;stroke-width:1.0128px;stroke-linecap:butt;stroke-linejoin:miter;stroke-opacity:1"
           d="m -250.46872,119.52504 c 4.33893,-4.736 3.98825,-8.91625 2.0893,-13.18014 -3.09901,4.38913 -3.70558,9.007 -2.0893,13.18014 z"
           id="path126714" />
        <path
           style="fill:#017f35;fill-opacity:1;stroke:none;stroke-width:1.0128px;stroke-linecap:butt;stroke-linejoin:miter;stroke-opacity:1"
           d="m -252.92645,108.60866 c 4.96187,-4.07869 5.20258,-8.26672 3.92218,-12.755298 -3.68549,3.909662 -4.93549,8.396328 -3.92218,12.755298 z"
           id="path126716" />
        <path
           style="fill:#017f35;fill-opacity:1;stroke:none;stroke-width:0.943763px;stroke-linecap:butt;stroke-linejoin:miter;stroke-opacity:1"
           d="m -253.85543,96.909824 c 4.86361,-3.423169 5.4332,-7.358781 4.64146,-11.710145 -3.6861,3.374099 -5.20059,7.504369 -4.64146,11.710145 z"
           id="path126718" />
        <path
           style="fill:#017f35;fill-opacity:1;stroke:none;stroke-width:0.781904px;stroke-linecap:butt;stroke-linejoin:miter;stroke-opacity:1"
           d="m -253.47676,84.25303 c 4.82256,-1.55012 6.00808,-4.974631 6.36787,-9.08435 -4.39659,1.34753 -6.29268,4.784251 -6.36787,9.08435 z"
           id="path126720" />
        <path
           style="fill:#017f35;fill-opacity:1;stroke:none;stroke-width:0.781904px;stroke-linecap:butt;stroke-linejoin:miter;stroke-opacity:1"
           d="m -253.47676,84.25303 c -4.36703,-2.044081 -5.17326,-5.504013 -4.46039,-10.157756 4.05236,2.259186 4.83602,6.145566 4.46039,10.157756 z"
           id="path126914" />
        <path
           style="fill:#017f35;fill-opacity:1;stroke:none;stroke-width:0.943763px;stroke-linecap:butt;stroke-linejoin:miter;stroke-opacity:1"
           d="m -253.85543,96.909824 c -4.86361,-3.423169 -5.4332,-7.358781 -4.64146,-11.710145 3.6861,3.374099 5.20059,7.504369 4.64146,11.710145 z"
           id="path126916" />
        <path
           style="fill:#017f35;fill-opacity:1;stroke:none;stroke-width:1.0128px;stroke-linecap:butt;stroke-linejoin:miter;stroke-opacity:1"
           d="m -252.92645,108.60866 c -5.77023,-2.82142 -6.9724,-6.84041 -6.76411,-11.503388 4.48933,2.951978 6.74249,7.028238 6.76411,11.503388 z"
           id="path126918" />
        <path
           style="fill:#017f35;fill-opacity:1;stroke:none;stroke-width:1.0128px;stroke-linecap:butt;stroke-linejoin:miter;stroke-opacity:1"
           d="m -250.46872,119.52504 c -6.08816,-2.04701 -7.80282,-5.87552 -8.20274,-10.52598 4.83512,2.34304 7.59929,6.09165 8.20274,10.52598 z"
           id="path126920" />
        <path
           style="fill:#017f35;fill-opacity:1;stroke:none;stroke-width:1.0128px;stroke-linecap:butt;stroke-linejoin:miter;stroke-opacity:1"
           d="m -246.50183,129.25718 c -6.362,-0.88373 -8.75621,-4.32833 -10.01072,-8.82421 5.18549,1.40677 8.59624,4.57843 10.01072,8.82421 z"
           id="path126922" />
        <path
           style="fill:#017f35;fill-opacity:1;stroke:none;stroke-width:0.938624px;stroke-linecap:butt;stroke-linejoin:miter;stroke-opacity:1"
           d="m -239.824,139.17975 c -5.96862,0.10162 -8.70554,-2.70083 -10.56397,-6.62562 4.97311,0.54379 8.59841,2.95196 10.56397,6.62562 z"
           id="path126924" />
        <path
           style="fill:#017f35;fill-opacity:1;stroke:none;stroke-width:1px;stroke-linecap:butt;stroke-linejoin:miter;stroke-opacity:1"
           d="m -231.49207,146.85836 c -4.39297,-4.48027 -8.51214,-4.28758 -12.80283,-2.56205 4.12453,3.23733 8.61747,4.01054 12.80283,2.56205 z"
           id="path126926" />
        <path
           style="fill:#017f35;fill-opacity:1;stroke:none;stroke-width:1px;stroke-linecap:butt;stroke-linejoin:miter;stroke-opacity:1"
           d="m -235.30513,152.24857 c 5.34247,-3.29073 9.29407,-2.11191 13.04306,0.59597 -4.78267,2.14898 -9.32959,1.81765 -13.04306,-0.59597 z"
           id="path126928" />
        <path
           style="fill:#017f35;fill-opacity:1;stroke:none;stroke-width:1px;stroke-linecap:butt;stroke-linejoin:miter;stroke-opacity:1"
           d="m -252.67054,75.881148 c -3.21017,-7.587934 1.99318,-12.624996 4.3125,-13.875 1.69171,5.337973 0.30452,10.027582 -4.3125,13.875 z"
           id="path127206" />
        <path
           id="path133298"
           style="fill:#017f35;fill-opacity:1;stroke:none;stroke-width:0.2;stroke-linecap:butt;stroke-linejoin:miter;stroke-miterlimit:4;stroke-dasharray:none;stroke-opacity:1"
           d="m -213.95117,146.91602 c -1.32173,0.029 -2.59401,1.14426 -2.56836,2.63867 0.036,2.09821 1.37827,4.90774 2.5625,7.49804 0.66819,1.71565 0.28404,2.66527 -0.0566,3.125 -0.25104,0.33875 -1.3187,1.34775 -4.54883,1.92579 2.7925,0.49794 4.84392,0.18341 6.62305,-1.18164 1.27758,-0.98025 1.2886,-1.85946 1.64453,-2.54102 0.42928,-0.82202 1.14813,-0.50002 1.72851,-0.5 0.58038,2e-5 1.30119,-0.32202 1.73047,0.5 0.35593,0.68156 0.365,1.56077 1.64258,2.54102 1.77913,1.36505 3.83055,1.67958 6.62305,1.18164 -3.23013,-0.57804 -4.29584,-1.58704 -4.54688,-1.92579 -0.34068,-0.45973 -0.72483,-1.40935 -0.0566,-3.125 1.18423,-2.5903 2.52455,-5.39983 2.56055,-7.49804 0.0357,-2.07918 -2.43959,-3.42557 -4.06836,-2.13281 0,0 -2.25167,3.08398 -3.88477,3.08398 -1.6331,0 -3.88476,-3.08398 -3.88476,-3.08398 -0.4581,-0.36359 -0.9828,-0.51722 -1.5,-0.50586 z" />
        <path
           id="path136283"
           style="fill:#ffffff;fill-opacity:1;stroke:none;stroke-width:0.1;stroke-linecap:butt;stroke-linejoin:miter;stroke-miterlimit:4;stroke-dasharray:none;stroke-opacity:1"
           d="m -212.94141,149.4707 c -1.61924,0.0188 -1.20098,6.78265 4.375,6.70508 6.15281,-0.0856 6.07187,-7.79519 3.80469,-6.53711 0,0 -2.36507,2.11149 -3.80469,2.11133 -1.43904,-1.6e-4 -3.80273,-2.11133 -3.80273,-2.11133 -0.21255,-0.11794 -0.40476,-0.16991 -0.57227,-0.16797 z" />
        <path
           id="path136804"
           style="fill:#017f35;fill-opacity:1;stroke:none;stroke-width:0.0559784;stroke-linecap:butt;stroke-linejoin:miter;stroke-miterlimit:4;stroke-dasharray:none;stroke-opacity:1"
           d="m -211.24609,151.55273 c -0.99378,0.01 -0.69976,3.46301 2.68554,3.42383 3.73551,-0.0432 3.72543,-3.98024 2.33399,-3.33789 0,0 -1.48176,1.07813 -2.33399,1.07813 -0.85223,0 -2.33398,-1.07813 -2.33398,-1.07813 -0.13045,-0.0602 -0.24876,-0.0869 -0.35156,-0.0859 z" />
        <path
           style="fill:none;stroke:#017f35;stroke-width:1px;stroke-linecap:butt;stroke-linejoin:miter;stroke-opacity:1"
           d="m -165.0866,72.631148 c 10.19114,61.523702 -21.69641,77.284702 -38.57392,84.311672"
           id="path139741" />
        <path
           style="fill:#017f35;fill-opacity:1;stroke:none;stroke-width:1px;stroke-linecap:butt;stroke-linejoin:miter;stroke-opacity:1"
           d="m -194.87007,152.84454 c -1.17068,-6.16445 1.33903,-9.43647 5.20519,-11.97425 0.30341,5.2345 -1.62663,9.36479 -5.20519,11.97425 z"
           id="path139743" />
        <path
           style="fill:#017f35;fill-opacity:1;stroke:none;stroke-width:1px;stroke-linecap:butt;stroke-linejoin:miter;stroke-opacity:1"
           d="m -185.64007,146.85836 c -1.47623,-6.0985 0.86742,-9.49145 4.60239,-12.21862 0.56372,5.2129 -1.15822,9.43418 -4.60239,12.21862 z"
           id="path139745" />
        <path
           style="fill:#017f35;fill-opacity:1;stroke:none;stroke-width:0.938624px;stroke-linecap:butt;stroke-linejoin:miter;stroke-opacity:1"
           d="m -177.30814,139.17975 c -2.2152,-5.54325 -0.56775,-9.09717 2.4409,-12.22858 1.25826,4.84193 0.29495,9.08624 -2.4409,12.22858 z"
           id="path139747" />
        <path
           style="fill:#017f35;fill-opacity:1;stroke:none;stroke-width:1.0128px;stroke-linecap:butt;stroke-linejoin:miter;stroke-opacity:1"
           d="m -170.63031,129.25718 c -3.70659,-5.24567 -2.8312,-9.34825 -0.40936,-13.33842 2.52035,4.74511 2.53934,9.40261 0.40936,13.33842 z"
           id="path139749" />
        <path
           style="fill:#017f35;fill-opacity:1;stroke:none;stroke-width:1.0128px;stroke-linecap:butt;stroke-linejoin:miter;stroke-opacity:1"
           d="m -166.66342,119.52504 c -4.33893,-4.736 -3.98825,-8.91625 -2.0893,-13.18014 3.09901,4.38913 3.70558,9.007 2.0893,13.18014 z"
           id="path139751" />
        <path
           style="fill:#017f35;fill-opacity:1;stroke:none;stroke-width:1.0128px;stroke-linecap:butt;stroke-linejoin:miter;stroke-opacity:1"
           d="m -164.20569,108.60866 c -4.96187,-4.07869 -5.20258,-8.26672 -3.92218,-12.755298 3.68549,3.909662 4.93549,8.396328 3.92218,12.755298 z"
           id="path139753" />
        <path
           style="fill:#017f35;fill-opacity:1;stroke:none;stroke-width:0.943763px;stroke-linecap:butt;stroke-linejoin:miter;stroke-opacity:1"
           d="m -163.27671,96.909824 c -4.86361,-3.423169 -5.43319,-7.358781 -4.64146,-11.710145 3.6861,3.374099 5.20059,7.504369 4.64146,11.710145 z"
           id="path139755" />
        <path
           style="fill:#017f35;fill-opacity:1;stroke:none;stroke-width:0.781904px;stroke-linecap:butt;stroke-linejoin:miter;stroke-opacity:1"
           d="m -163.65538,84.25303 c -4.82256,-1.55012 -6.00808,-4.974631 -6.36787,-9.08435 4.39659,1.34753 6.29268,4.784251 6.36787,9.08435 z"
           id="path139757" />
        <path
           style="fill:#017f35;fill-opacity:1;stroke:none;stroke-width:0.781904px;stroke-linecap:butt;stroke-linejoin:miter;stroke-opacity:1"
           d="m -163.65538,84.25303 c 4.36704,-2.044081 5.17326,-5.504013 4.46039,-10.157756 -4.05236,2.259186 -4.83602,6.145566 -4.46039,10.157756 z"
           id="path139759" />
        <path
           style="fill:#017f35;fill-opacity:1;stroke:none;stroke-width:0.943763px;stroke-linecap:butt;stroke-linejoin:miter;stroke-opacity:1"
           d="m -163.27671,96.909824 c 4.86361,-3.423169 5.4332,-7.358781 4.64146,-11.710145 -3.6861,3.374099 -5.20059,7.504369 -4.64146,11.710145 z"
           id="path139761" />
        <path
           style="fill:#017f35;fill-opacity:1;stroke:none;stroke-width:1.0128px;stroke-linecap:butt;stroke-linejoin:miter;stroke-opacity:1"
           d="m -164.20569,108.60866 c 5.77023,-2.82142 6.9724,-6.84041 6.76411,-11.503388 -4.48933,2.951978 -6.74249,7.028238 -6.76411,11.503388 z"
           id="path139763" />
        <path
           style="fill:#017f35;fill-opacity:1;stroke:none;stroke-width:1.0128px;stroke-linecap:butt;stroke-linejoin:miter;stroke-opacity:1"
           d="m -166.66342,119.52504 c 6.08816,-2.04701 7.80282,-5.87552 8.20274,-10.52598 -4.83512,2.34304 -7.59929,6.09165 -8.20274,10.52598 z"
           id="path139765" />
        <path
           style="fill:#017f35;fill-opacity:1;stroke:none;stroke-width:1.0128px;stroke-linecap:butt;stroke-linejoin:miter;stroke-opacity:1"
           d="m -170.63031,129.25718 c 6.362,-0.88373 8.75621,-4.32833 10.01072,-8.82421 -5.18549,1.40677 -8.59624,4.57843 -10.01072,8.82421 z"
           id="path139767" />
        <path
           style="fill:#017f35;fill-opacity:1;stroke:none;stroke-width:0.938624px;stroke-linecap:butt;stroke-linejoin:miter;stroke-opacity:1"
           d="m -177.30814,139.17975 c 5.96862,0.10162 8.70554,-2.70083 10.56397,-6.62562 -4.97311,0.54379 -8.59841,2.95196 -10.56397,6.62562 z"
           id="path139769" />
        <path
           style="fill:#017f35;fill-opacity:1;stroke:none;stroke-width:1px;stroke-linecap:butt;stroke-linejoin:miter;stroke-opacity:1"
           d="m -185.64007,146.85836 c 4.39297,-4.48027 8.51214,-4.28758 12.80283,-2.56205 -4.12453,3.23733 -8.61747,4.01054 -12.80283,2.56205 z"
           id="path139771" />
        <path
           style="fill:#017f35;fill-opacity:1;stroke:none;stroke-width:1px;stroke-linecap:butt;stroke-linejoin:miter;stroke-opacity:1"
           d="m -181.82702,152.24857 c -5.34246,-3.29073 -9.29406,-2.11191 -13.04305,0.59597 4.78267,2.14898 9.32959,1.81765 13.04305,-0.59597 z"
           id="path139773" />
        <path
           style="fill:#017f35;fill-opacity:1;stroke:none;stroke-width:1px;stroke-linecap:butt;stroke-linejoin:miter;stroke-opacity:1"
           d="m -164.4616,75.881148 c 3.21017,-7.587934 -1.99317,-12.624996 -4.3125,-13.875 -1.69171,5.337973 -0.30452,10.027582 4.3125,13.875 z"
           id="path139775" />
      </g>
    </g>
  </g>
  <metadata
     id="metadata142368">
    <rdf:RDF>
      <cc:Work
         rdf:about="">
        <dc:title>Viqarunnisa Noon School and College Logo</dc:title>
      </cc:Work>
    </rdf:RDF>
  </metadata>
</svg>
